<?xml version="1.0" encoding="utf-8"?>
<!-- Generator: Adobe Illustrator 20.1.0, SVG Export Plug-In . SVG Version: 6.00 Build 0)  -->
<svg version="1.1" id="Layer_1" xmlns="http://www.w3.org/2000/svg" xmlns:xlink="http://www.w3.org/1999/xlink" x="0px" y="0px"
	 viewBox="0 0 27 34" style="enable-background:new 0 0 27 34;" xml:space="preserve">
<style type="text/css">
	.st0{clip-path:url(#SVGID_2_); fill:#fff}
	.st1{clip-path:url(#SVGID_4_); fill:#fff}
	.st2{clip-path:url(#SVGID_6_); fill:#fff}
</style>
<g id="android">
	<g>
		<defs>
			<rect id="SVGID_1_" x="6.2" y="7.9" width="15.8" height="19"/>
		</defs>
		<clipPath id="SVGID_2_">
			<use xlink:href="#SVGID_1_"  style="overflow:visible;"/>
		</clipPath>
		<g class="st0">
			<defs>
				<rect id="SVGID_3_" x="6.2" y="7.9" width="15.8" height="19"/>
			</defs>
			<clipPath id="SVGID_4_">
				<use xlink:href="#SVGID_3_"  style="overflow:visible;"/>
			</clipPath>
			<path class="st1" d="M7.3,14L7.3,14c-0.7,0-1.2,0.5-1.2,1.1V20c0,0.6,0.5,1.1,1.1,1.1h0c0.6,0,1.1-0.5,1.1-1.1v-4.9
				C8.4,14.5,7.9,14,7.3,14"/>
		</g>
		<g class="st0">
			<defs>
				<rect id="SVGID_5_" x="6.2" y="7.9" width="15.8" height="19"/>
			</defs>
			<clipPath id="SVGID_6_">
				<use xlink:href="#SVGID_5_"  style="overflow:visible;"/>
			</clipPath>
			<path class="st2" d="M9,21.9c0,0.6,0.5,1,1,1h1.1v2.6c0,0.6,0.5,1.1,1.1,1.1h0c0.6,0,1.1-0.5,1.1-1.1v-2.6h1.5v2.6
				c0,0.6,0.5,1.1,1.1,1.1h0c0.6,0,1.1-0.5,1.1-1.1v-2.6h1.1c0.6,0,1-0.5,1-1v-7.7H9V21.9z"/>
			<path class="st2" d="M16.7,9.5l0.9-1.3c0.1-0.1,0-0.2-0.1-0.3c-0.1-0.1-0.2,0-0.3,0.1l-0.9,1.4c-0.7-0.3-1.4-0.4-2.2-0.4
				c-0.8,0-1.6,0.2-2.2,0.4L11,8c-0.1-0.1-0.2-0.1-0.3-0.1c-0.1,0.1-0.1,0.2-0.1,0.3l0.9,1.3c-1.6,0.8-2.6,2.2-2.6,3.9
				c0,0.1,0,0.2,0,0.3h10.4c0-0.1,0-0.2,0-0.3C19.4,11.7,18.3,10.3,16.7,9.5 M11.7,11.9c-0.3,0-0.5-0.2-0.5-0.5
				c0-0.3,0.2-0.5,0.5-0.5c0.3,0,0.5,0.2,0.5,0.5C12.2,11.7,12,11.9,11.7,11.9 M16.6,11.9c-0.3,0-0.5-0.2-0.5-0.5
				c0-0.3,0.2-0.5,0.5-0.5c0.3,0,0.5,0.2,0.5,0.5C17.1,11.7,16.8,11.9,16.6,11.9"/>
			<path class="st2" d="M21,14L21,14c-0.7,0-1.2,0.5-1.2,1.1V20c0,0.6,0.5,1.1,1.1,1.1h0c0.6,0,1.1-0.5,1.1-1.1v-4.9
				C22.1,14.5,21.6,14,21,14"/>
		</g>
	</g>
</g>
</svg>
