<?xml version="1.0" encoding="utf-8"?>
<!-- Generator: Adobe Illustrator 20.1.0, SVG Export Plug-In . SVG Version: 6.00 Build 0)  -->
<svg version="1.1" id="Layer_1" xmlns="http://www.w3.org/2000/svg" xmlns:xlink="http://www.w3.org/1999/xlink" x="0px" y="0px"
	 viewBox="0 0 27 34" style="enable-background:new 0 0 27 34;" xml:space="preserve">
<style type="text/css">
	.st0{clip-path:url(#SVGID_2_); fill:#fff}
	.st1{clip-path:url(#SVGID_4_); fill:#fff}
</style>
<g id="apple">
	<g>
		<defs>
			<rect id="SVGID_1_" width="27" height="34"/>
		</defs>
		<clipPath id="SVGID_2_">
			<use xlink:href="#SVGID_1_"  style="overflow:visible;"/>
		</clipPath>
		<g class="st0">
			<defs>
				<rect id="SVGID_3_" width="27" height="34"/>
			</defs>
			<clipPath id="SVGID_4_">
				<use xlink:href="#SVGID_3_"  style="overflow:visible;"/>
			</clipPath>
			<path class="st1" d="M1.4,12.4c-2.8,5-1,12.5,2.1,17.1c1.5,2.3,3.1,4.3,5.2,4.3c0,0,0.1,0,0.1,0c1,0,1.7-0.4,2.4-0.7
				c0.8-0.3,1.6-0.7,2.9-0.7c1.2,0,2,0.3,2.7,0.7c0.7,0.3,1.5,0.7,2.6,0.6c2.4,0,3.9-2.3,5.2-4.2c1.4-2,2-4,2.3-4.8l0,0
				c0-0.1,0-0.3-0.1-0.3c0,0,0,0,0,0c-0.4-0.2-4.1-1.9-4.2-6.5c0-3.7,2.8-5.7,3.3-6.1l0,0c0.1,0,0.1-0.1,0.1-0.2c0-0.1,0-0.1,0-0.2
				c-1.9-2.9-4.9-3.4-6.1-3.4c-0.2,0-0.4,0-0.5,0c-1.4,0-2.8,0.5-3.8,1c-0.7,0.3-1.4,0.6-1.8,0.6c-0.5,0-1.2-0.3-1.9-0.6
				c-1-0.4-2.2-0.9-3.4-0.9c0,0-0.1,0-0.1,0C5.5,8.2,2.9,9.8,1.4,12.4"/>
			<path class="st1" d="M19.9,0c-1.7,0.1-3.7,1.1-5,2.6c-1,1.2-2.1,3.3-1.8,5.4c0,0.1,0.1,0.2,0.2,0.2c0.1,0,0.2,0,0.3,0
				c1.7,0,3.5-0.9,4.7-2.5c1.3-1.6,1.9-3.7,1.7-5.5C20.2,0.1,20,0,19.9,0"/>
		</g>
	</g>
</g>
</svg>
