<?xml version="1.0" encoding="utf-8"?>
	<!-- Generator: Adobe Illustrator 20.1.0, SVG Export Plug-In . SVG Version: 6.00 Build 0)  -->
	<svg version="1.1" id="Layer_1" xmlns="http://www.w3.org/2000/svg" xmlns:xlink="http://www.w3.org/1999/xlink" x="0px" y="0px" viewBox="0 0 38 38" style="enable-background:new 0 0 38 38;" xml:space="preserve">
		<style type="text/css">
			.st0 {
				clip-path: url(#SVGID_2_);
			}
			
			.st1 {
				clip-path: url(#SVGID_4_);
				fill: #b0b0b0;
			}
			
			.st2 {
				clip-path: url(#SVGID_6_);
				fill: none;
				stroke:  #b0b0b0;
				stroke-width: 2;
				stroke-miterlimit: 10;
			}

		</style>
		<g id="arrow-next">
			<g>
				<defs>
					<rect id="SVGID_1_" width="38" height="38" />
				</defs>
				<clipPath id="SVGID_2_">
					<use xlink:href="#SVGID_1_" style="overflow:visible;" />
				</clipPath>
				<g class="st0">
					<defs>
						<rect id="SVGID_3_" x="9.4" y="12.7" width="19.7" height="13.7" />
					</defs>
					<clipPath id="SVGID_4_">
						<use xlink:href="#SVGID_3_" style="overflow:visible;" />
					</clipPath>
					<path class="st1" d="M22.2,12.9c-0.3-0.3-0.7-0.3-1,0c-0.3,0.3-0.3,0.7,0,1l4.9,4.9H10c-0.4,0-0.7,0.3-0.7,0.7
				c0,0.4,0.3,0.7,0.7,0.7h16.1L21.3,25c-0.3,0.3-0.3,0.7,0,1c0.3,0.3,0.7,0.3,1,0l6-6c0.3-0.3,0.3-0.7,0-1L22.2,12.9z" />
				</g>
				<g class="st0">
					<defs>
						<rect id="SVGID_5_" width="38" height="38" />
					</defs>
					<clipPath id="SVGID_6_">
						<use xlink:href="#SVGID_5_" style="overflow:visible;" />
					</clipPath>
					<circle class="st2" cx="19" cy="19" r="17.3" />
				</g>
			</g>
		</g>
	</svg>
