<?xml version="1.0" encoding="utf-8"?>
<!-- Generator: Adobe Illustrator 20.1.0, SVG Export Plug-In . SVG Version: 6.00 Build 0)  -->
<svg version="1.1" id="Layer_1" xmlns="http://www.w3.org/2000/svg" xmlns:xlink="http://www.w3.org/1999/xlink" x="0px" y="0px"
	 viewBox="0 0 77 57" style="enable-background:new 0 0 77 57;" xml:space="preserve">
<style type="text/css">
	.st0{clip-path:url(#SVGID_2_);}
	.st1{clip-path:url(#SVGID_4_);}
	.st2{clip-path:url(#SVGID_4_);fill:#010101;}
</style>
<g id="Audio_x2F_video">
	<g>
		<defs>
			<rect id="SVGID_1_" width="77" height="57"/>
		</defs>
		<clipPath id="SVGID_2_">
			<use xlink:href="#SVGID_1_"  style="overflow:visible;"/>
		</clipPath>
		<g class="st0">
			<defs>
				<rect id="SVGID_3_" width="77" height="57"/>
			</defs>
			<clipPath id="SVGID_4_">
				<use xlink:href="#SVGID_3_"  style="overflow:visible;"/>
			</clipPath>
			<path class="st1" d="M73.4,0H3.6C1.6,0,0,1.5,0,3.3v39.9c0,1.8,1.6,3.3,3.6,3.3H30v7.5h-7.8V57h32.5v-3.1H47v-7.5h26.5
				c2,0,3.6-1.5,3.6-3.3V3.3C77,1.5,75.4,0,73.4,0 M74,43.2c0,0.3-0.3,0.5-0.6,0.5H3.6c-0.3,0-0.6-0.2-0.6-0.5V3.3
				C3,3,3.2,2.7,3.6,2.7h69.9C73.8,2.7,74,3,74,3.3V43.2z"/>
			<path class="st2" d="M40.2,11.3c-0.6-0.3-1.4-0.3-2,0.1l-8.4,5.1h-3.2c-0.8,0-1.5,0.6-1.5,1.3h-0.4c-1.5,0-2.7,1.1-2.7,2.5v2.7
				c0,1.4,1.2,2.5,2.7,2.5h0.4c0.1,0.7,0.7,1.3,1.5,1.3h3.2l8.4,5.1c0.3,0.2,0.7,0.3,1.1,0.3c0.3,0,0.6-0.1,0.9-0.2
				c0.6-0.3,1-0.9,1-1.6V12.9C41.2,12.2,40.8,11.6,40.2,11.3 M23.5,23.1v-2.7c0-0.6,0.5-1.1,1.2-1.1h0.4v4.9h-0.4
				C24,24.2,23.5,23.7,23.5,23.1 M26.7,25.5V18c0,0,0,0,0,0h2.6v7.5L26.7,25.5C26.7,25.5,26.7,25.5,26.7,25.5 M39.7,30.5
				c0,0.2-0.1,0.3-0.2,0.3c-0.1,0-0.2,0.1-0.4,0l-8.2-5.1v-8.2l8.2-5.1c0.2-0.1,0.3-0.1,0.4,0c0.1,0,0.2,0.1,0.2,0.3V30.5z"/>
			<path class="st2" d="M49.1,12.7c-0.3-0.3-0.7-0.3-1,0c-0.3,0.3-0.3,0.7,0,0.9c2.3,2.2,3.6,5.1,3.6,8.1c0,3.1-1.3,6-3.6,8.1
				c-0.3,0.3-0.3,0.7,0,0.9c0.1,0.1,0.3,0.2,0.5,0.2s0.4-0.1,0.5-0.2c2.6-2.4,4-5.6,4-9S51.7,15.1,49.1,12.7"/>
			<path class="st2" d="M44.3,16.2c-0.3,0.3-0.3,0.7,0,0.9c1.3,1.2,2.1,2.9,2.1,4.6s-0.7,3.4-2.1,4.6c-0.3,0.3-0.3,0.7,0,0.9
				c0.1,0.1,0.3,0.2,0.5,0.2c0.2,0,0.4-0.1,0.5-0.2c1.6-1.5,2.5-3.4,2.5-5.5c0-2.1-0.9-4-2.5-5.5C45,15.9,44.6,15.9,44.3,16.2"/>
		</g>
	</g>
</g>
</svg>
