<?xml version="1.0" encoding="utf-8"?>
<!-- Generator: Adobe Illustrator 20.1.0, SVG Export Plug-In . SVG Version: 6.00 Build 0)  -->
<svg version="1.1" id="Layer_1" xmlns="http://www.w3.org/2000/svg" xmlns:xlink="http://www.w3.org/1999/xlink" x="0px" y="0px"
	 viewBox="0 0 256 76" style="enable-background:new 0 0 256 76;" xml:space="preserve">
<style type="text/css">
	.st0{clip-path:url(#SVGID_2_);}
	.st1{clip-path:url(#SVGID_4_);fill:#FFFFFF;}
</style>
<g id="bellnok-logo">
	<g>
		<defs>
			<rect id="SVGID_1_" y="0.2" width="256" height="75.5"/>
		</defs>
		<clipPath id="SVGID_2_">
			<use xlink:href="#SVGID_1_"  style="overflow:visible;"/>
		</clipPath>
		<g class="st0">
			<defs>
				<rect id="SVGID_3_" y="0.2" width="256" height="75.5"/>
			</defs>
			<clipPath id="SVGID_4_">
				<use xlink:href="#SVGID_3_"  style="overflow:visible;"/>
			</clipPath>
			<path class="st1" d="M37.1,18c1.7-5.7-0.1-10.7-5.4-14.8C28.5,1,22.8,0,14.8,0.4c0.7,2.9,0.7,5.7-0.1,8.4
				c-0.8,2.7-2.5,4.5-5.2,5.5c-2.6,1-4,2.7-4,5.2c-0.1,2.5,1.8,8,5.8,16.4c0.8,1.7,1.8,2.3,3,2c0.3-0.2,0.5-0.3,0.5-0.4
				c1.6-2.7,3.9-3.6,6.9-2.6c3.2,1,5.4,4,6.7,8.9c0.9,4.3,0.6,7.2-0.9,8.7c1.5-0.1,3.2-0.8,4.9-1.8c4.4-2.4,6.8-6,7.3-11
				c0.4-2.1,0.3-4.1-0.2-6.1c-1.1-3.9-3.8-6.6-8.1-8.1C34.6,23.5,36.6,21,37.1,18"/>
			<path class="st1" d="M0,53.4h19.5C11.2,52,4.6,43.6,0,28.3V53.4z"/>
			<path class="st1" d="M62.5,14.2c11.3,0,17.7,7.9,17.7,18.5c0,1.3-0.3,4-0.3,4H55.8c1,4.7,4.8,6.8,8.9,6.8
				c5.5,0,10.5-3.9,10.5-3.9l4.7,9c0,0-6.2,5.6-16.3,5.6c-13.6,0-21-9.9-21-20C42.6,22.9,50.2,14.2,62.5,14.2 M67.3,29.3
				c0-2.9-2-5.5-5-5.5c-3.7,0-5.5,2.7-6.2,5.5H67.3z"/>
			<path class="st1" d="M84,0.2h12.8v37.2c0,3.6,0.7,4.9,3.6,4.9c0.8,0,1.6-0.1,1.6-0.1v11.1c0,0-1.8,0.2-3.9,0.2
				C91.3,53.7,84,52,84,39.2V0.2z"/>
			<path class="st1" d="M105.4,0.2h12.8v37.2c0,3.6,0.7,4.9,3.6,4.9c0.8,0,1.6-0.1,1.6-0.1v11.1c0,0-1.8,0.2-3.9,0.2
				c-6.8,0-14.1-1.6-14.1-14.5V0.2z"/>
			<path class="st1" d="M127.3,15.1h12.3v3.3c0,1.3-0.1,2.4-0.1,2.4h0.1c1.8-3,5.4-6.6,12.2-6.6c7.7,0,13.7,3.6,13.7,14.3v24.8
				h-12.8V30.9c0-3.6-1.4-5-4.2-5c-4,0-6.5,2.2-7.6,5.5c-0.5,1.5-0.7,3.2-0.7,5v16.9h-12.8V15.1z"/>
			<path class="st1" d="M190.6,14.2c12.1,0,21.7,8.1,21.7,20.1c0,11.9-9.6,19.9-21.7,19.9c-12,0-21.7-7.9-21.7-19.9
				C169.1,22.3,178.7,14.2,190.6,14.2 M190.7,43.5c4.7,0,8.7-3.5,8.7-9.2c0-5.8-4-9.4-8.7-9.4c-4.7,0-8.7,3.6-8.7,9.4
				C182,40,186,43.5,190.7,43.5"/>
			<polygon class="st1" points="216.5,0.2 229.3,0.2 229.3,27.7 232.9,27.7 240.5,15.1 254.4,15.1 243.2,32.4 243.2,32.6 256,53.3 
				241.4,53.3 233.3,38.5 229.3,38.5 229.3,53.3 216.5,53.3 			"/>
			<polygon class="st1" points="4.2,61.8 0.1,61.8 0.1,60.4 10,60.4 10,61.8 5.9,61.8 5.9,72.4 4.2,72.4 			"/>
			<path class="st1" d="M12.4,60.4H14v4.4c0,0.4,0,0.7,0,0.7h0c0.4-0.8,1.5-1.9,3.2-1.9c2,0,3,1.1,3,3.3v5.5h-1.6v-5.1
				c0-1.2-0.3-2.2-1.6-2.2c-1.3,0-2.4,0.9-2.7,2.1c-0.1,0.3-0.1,0.7-0.1,1.1v4h-1.6V60.4z"/>
			<path class="st1" d="M27.4,63.5c2.4,0,3.7,1.8,3.7,4c0,0.2-0.1,0.7-0.1,0.7h-6.3c0.1,1.9,1.4,2.8,3,2.8c1.5,0,2.5-1,2.5-1
				l0.7,1.2c0,0-1.3,1.2-3.3,1.2c-2.7,0-4.6-2-4.6-4.5C23.1,65.3,24.9,63.5,27.4,63.5 M29.4,67.1c-0.1-1.5-1-2.2-2.1-2.2
				c-1.3,0-2.3,0.8-2.5,2.2H29.4z"/>
			<path class="st1" d="M45.1,60.1c2.9,0,4.4,1.6,4.4,1.6L48.7,63c0,0-1.4-1.3-3.5-1.3c-2.7,0-4.4,2-4.4,4.6c0,2.6,1.8,4.7,4.5,4.7
				c2.3,0,3.7-1.6,3.7-1.6l0.9,1.2c0,0-1.6,1.9-4.7,1.9c-3.6,0-6.1-2.8-6.1-6.3C39,62.8,41.6,60.1,45.1,60.1"/>
			<path class="st1" d="M56.8,63.5c2.6,0,4.6,1.9,4.6,4.5c0,2.6-2.1,4.5-4.6,4.5c-2.6,0-4.6-1.9-4.6-4.5
				C52.2,65.4,54.2,63.5,56.8,63.5 M56.8,71.1c1.6,0,3-1.3,3-3.1c0-1.8-1.3-3.1-3-3.1c-1.6,0-3,1.3-3,3.1
				C53.8,69.8,55.2,71.1,56.8,71.1"/>
			<path class="st1" d="M64.4,63.8H66v1.1c0,0.3,0,0.6,0,0.6h0c0.4-1,1.6-2,3-2c1.4,0,2.3,0.7,2.6,2h0c0.5-1,1.7-2,3.1-2
				c1.9,0,2.8,1.1,2.8,3.3v5.5h-1.6v-5.2c0-1.2-0.2-2.2-1.5-2.2c-1.2,0-2.1,1-2.4,2.2c-0.1,0.4-0.1,0.7-0.1,1.2v3.9h-1.6v-5.2
				c0-1.1-0.2-2.2-1.5-2.2c-1.3,0-2.1,1-2.5,2.3c-0.1,0.3-0.1,0.7-0.1,1.1v3.9h-1.6V63.8z"/>
			<path class="st1" d="M81,63.8h1.5v0.7c0,0.3,0,0.6,0,0.6h0c0,0,0.7-1.6,2.9-1.6c2.3,0,3.8,1.8,3.8,4.5c0,2.7-1.6,4.5-3.9,4.5
				c-1.9,0-2.6-1.4-2.6-1.4h0c0,0,0,0.3,0,0.7v3.9H81V63.8z M85,71.1c1.4,0,2.5-1.1,2.5-3.1c0-1.9-1-3.1-2.4-3.1
				c-1.3,0-2.5,0.9-2.5,3.1C82.6,69.6,83.4,71.1,85,71.1"/>
			<path class="st1" d="M92.1,60.4h1.6v9.4c0,1,0.4,1.2,0.9,1.2c0.2,0,0.3,0,0.3,0v1.5c0,0-0.3,0-0.5,0c-0.9,0-2.3-0.3-2.3-2.4V60.4
				z"/>
			<path class="st1" d="M101.4,63.5c2.4,0,3.7,1.8,3.7,4c0,0.2-0.1,0.7-0.1,0.7h-6.3c0.1,1.9,1.4,2.8,3,2.8c1.5,0,2.6-1,2.6-1
				l0.7,1.2c0,0-1.3,1.2-3.3,1.2c-2.7,0-4.6-2-4.6-4.5C97.1,65.3,99,63.5,101.4,63.5 M103.5,67.1c-0.1-1.5-1-2.2-2.1-2.2
				c-1.3,0-2.3,0.8-2.5,2.2H103.5z"/>
			<path class="st1" d="M108.5,65.2h-1.1v-1.3h1.2v-2.5h1.6v2.5h2.1v1.3h-2.1V69c0,1.7,1.2,1.9,1.8,1.9c0.2,0,0.4,0,0.4,0v1.5
				c0,0-0.2,0-0.6,0c-1.1,0-3.3-0.3-3.3-3.2V65.2z"/>
			<path class="st1" d="M119,63.5c2.4,0,3.7,1.8,3.7,4c0,0.2-0.1,0.7-0.1,0.7h-6.3c0.1,1.9,1.4,2.8,3,2.8c1.5,0,2.6-1,2.6-1l0.7,1.2
				c0,0-1.3,1.2-3.3,1.2c-2.7,0-4.6-2-4.6-4.5C114.7,65.3,116.5,63.5,119,63.5 M121,67.1c-0.1-1.5-1-2.2-2.1-2.2
				c-1.3,0-2.3,0.8-2.5,2.2H121z"/>
			<path class="st1" d="M136.7,60.1c2.9,0,4.4,1.6,4.4,1.6l-0.8,1.3c0,0-1.4-1.3-3.5-1.3c-2.7,0-4.4,2-4.4,4.6
				c0,2.6,1.8,4.7,4.5,4.7c2.3,0,3.7-1.6,3.7-1.6l0.9,1.2c0,0-1.6,1.9-4.7,1.9c-3.6,0-6.1-2.8-6.1-6.3
				C130.6,62.8,133.3,60.1,136.7,60.1"/>
			<path class="st1" d="M148.9,67h0.4v-0.2c0-1.4-0.8-1.9-1.9-1.9c-1.3,0-2.4,0.8-2.4,0.8l-0.7-1.2c0,0,1.2-1,3.2-1
				c2.2,0,3.4,1.2,3.4,3.4v5.4h-1.5v-0.8c0-0.4,0-0.7,0-0.7h0c0,0-0.7,1.7-2.8,1.7c-1.5,0-2.9-0.9-2.9-2.6
				C143.7,67.1,147.5,67,148.9,67 M147,71.2c1.4,0,2.3-1.5,2.3-2.7v-0.3h-0.4c-1.2,0-3.5,0.1-3.5,1.6
				C145.4,70.6,145.9,71.2,147,71.2"/>
			<path class="st1" d="M154.3,60.4h1.6v9.4c0,1,0.4,1.2,0.9,1.2c0.2,0,0.3,0,0.3,0v1.5c0,0-0.3,0-0.5,0c-0.9,0-2.3-0.3-2.3-2.4
				V60.4z"/>
			<path class="st1" d="M159.8,60.4h1.6v9.4c0,1,0.4,1.2,0.9,1.2c0.2,0,0.3,0,0.3,0v1.5c0,0-0.3,0-0.5,0c-0.9,0-2.3-0.3-2.3-2.4
				V60.4z"/>
			<path class="st1" d="M171.2,60.4h4.4c2.2,0,3.8,1.5,3.8,3.8c0,2.3-1.6,3.8-3.8,3.8h-2.7v4.4h-1.7V60.4z M175.3,66.5
				c1.4,0,2.3-0.9,2.3-2.3s-0.9-2.3-2.3-2.3h-2.4v4.6H175.3z"/>
			<path class="st1" d="M182.2,63.8h1.6v1.5c0,0.4,0,0.6,0,0.6h0c0.4-1.3,1.4-2.2,2.7-2.2c0.2,0,0.4,0,0.4,0v1.6c0,0-0.2,0-0.5,0
				c-1.1,0-2,0.7-2.4,2c-0.2,0.5-0.2,1-0.2,1.5v3.5h-1.6V63.8z"/>
			<path class="st1" d="M193.5,63.5c2.6,0,4.6,1.9,4.6,4.5c0,2.6-2.1,4.5-4.6,4.5c-2.6,0-4.6-1.9-4.6-4.5
				C188.9,65.4,191,63.5,193.5,63.5 M193.5,71.1c1.6,0,3-1.3,3-3.1c0-1.8-1.3-3.1-3-3.1c-1.6,0-3,1.3-3,3.1
				C190.6,69.8,191.9,71.1,193.5,71.1"/>
			<path class="st1" d="M205.2,63.5c2.2,0,3.2,1.3,3.2,1.3l-0.8,1.2c0,0-0.9-1-2.4-1c-1.7,0-3,1.3-3,3.1c0,1.8,1.3,3.1,3,3.1
				c1.6,0,2.7-1.2,2.7-1.2l0.7,1.2c0,0-1.2,1.4-3.4,1.4c-2.7,0-4.6-1.9-4.6-4.5C200.5,65.5,202.4,63.5,205.2,63.5"/>
			<path class="st1" d="M215.2,63.5c2.4,0,3.7,1.8,3.7,4c0,0.2-0.1,0.7-0.1,0.7h-6.3c0.1,1.9,1.4,2.8,3,2.8c1.5,0,2.6-1,2.6-1
				l0.7,1.2c0,0-1.3,1.2-3.3,1.2c-2.7,0-4.6-2-4.6-4.5C210.9,65.3,212.7,63.5,215.2,63.5 M217.2,67.1c-0.1-1.5-1-2.2-2.1-2.2
				c-1.3,0-2.3,0.8-2.5,2.2H217.2z"/>
			<path class="st1" d="M222,70.1c0,0,1,1,2.5,1c0.7,0,1.4-0.4,1.4-1.1c0-1.6-4.4-1.3-4.4-4.1c0-1.6,1.4-2.4,3.1-2.4
				c1.9,0,2.8,1,2.8,1l-0.7,1.2c0,0-0.8-0.8-2.1-0.8c-0.7,0-1.4,0.3-1.4,1.1c0,1.5,4.4,1.2,4.4,4c0,1.4-1.2,2.5-3.1,2.5
				c-2.1,0-3.3-1.3-3.3-1.3L222,70.1z"/>
			<path class="st1" d="M230.7,70.1c0,0,1,1,2.5,1c0.7,0,1.4-0.4,1.4-1.1c0-1.6-4.4-1.3-4.4-4.1c0-1.6,1.4-2.4,3.1-2.4
				c1.9,0,2.8,1,2.8,1l-0.7,1.2c0,0-0.8-0.8-2.1-0.8c-0.7,0-1.4,0.3-1.4,1.1c0,1.5,4.4,1.2,4.4,4c0,1.4-1.2,2.5-3.1,2.5
				c-2.1,0-3.3-1.3-3.3-1.3L230.7,70.1z"/>
			<path class="st1" d="M243.2,63.5c2.6,0,4.6,1.9,4.6,4.5c0,2.6-2.1,4.5-4.6,4.5c-2.6,0-4.6-1.9-4.6-4.5
				C238.6,65.4,240.6,63.5,243.2,63.5 M243.2,71.1c1.6,0,3-1.3,3-3.1c0-1.8-1.3-3.1-3-3.1c-1.6,0-3,1.3-3,3.1
				C240.3,69.8,241.6,71.1,243.2,71.1"/>
			<path class="st1" d="M250.8,63.8h1.6v1.5c0,0.4,0,0.6,0,0.6h0c0.4-1.3,1.4-2.2,2.7-2.2c0.2,0,0.4,0,0.4,0v1.6c0,0-0.2,0-0.5,0
				c-1.1,0-2,0.7-2.4,2c-0.2,0.5-0.2,1-0.2,1.5v3.5h-1.6V63.8z"/>
		</g>
	</g>
</g>
</svg>
