<?xml version="1.0" encoding="utf-8"?>
<!-- Generator: Adobe Illustrator 20.1.0, SVG Export Plug-In . SVG Version: 6.00 Build 0)  -->
<svg version="1.1" id="Layer_1" xmlns="http://www.w3.org/2000/svg" xmlns:xlink="http://www.w3.org/1999/xlink" x="0px" y="0px"
	 viewBox="0 0 53 57" style="enable-background:new 0 0 53 57;" xml:space="preserve">
<style type="text/css">
	.st0{clip-path:url(#SVGID_2_);}
	.st1{clip-path:url(#SVGID_4_);}
</style>
<g id="BMS">
	<g>
		<defs>
			<rect id="SVGID_1_" width="53" height="57"/>
		</defs>
		<clipPath id="SVGID_2_">
			<use xlink:href="#SVGID_1_"  style="overflow:visible;"/>
		</clipPath>
		<g class="st0">
			<defs>
				<rect id="SVGID_3_" width="53" height="57"/>
			</defs>
			<clipPath id="SVGID_4_">
				<use xlink:href="#SVGID_3_"  style="overflow:visible;"/>
			</clipPath>
			<path class="st1" d="M52,55.1h-1.6V4.8c0-0.5-0.4-1-1-1H31.1c-0.5,0-1,0.4-1,1V9h-2V4.8c0-0.5-0.4-1-1-1h-4.3V1c0-0.5-0.4-1-1-1
				c-0.5,0-1,0.4-1,1v2.9h-4.3c-0.5,0-1,0.4-1,1V9h-2.9c-0.5,0-1,0.4-1,1v8H3.6c-0.5,0-1,0.4-1,1v36.2H1c-0.5,0-1,0.4-1,1
				c0,0.5,0.4,1,1,1h51c0.5,0,1-0.4,1-1C53,55.5,52.6,55.1,52,55.1 M32.1,5.8h16.4v49.3h-7.2V30.4v-1.3c0-0.5-0.4-1-1-1
				c-0.5,0-1,0.4-1,1v0.3h-2v-0.3c0-0.5-0.4-1-1-1c-0.5,0-1,0.4-1,1v0.3h-3.3V9.9V5.8z M17.7,5.8h8.5V9h-8.5V5.8z M13.7,10.9h16.4
				v18.6h-7.2v-3.2h2.9c0.5,0,1-0.4,1-1c0-0.5-0.4-1-1-1h-2.9v-3.2h2.9c0.5,0,1-0.4,1-1c0-0.5-0.4-1-1-1h-2.9v-0.3c0-0.5-0.4-1-1-1
				h-8.2V10.9z M4.6,19.9h16.4v10.6v1.7v23h-4.6v-4.2c0-0.5-0.4-1-1-1h-5.2c-0.5,0-1,0.4-1,1v4.2H4.6V19.9z M13.7,55.1v-1.6
				c0-0.5-0.4-1-1-1c-0.5,0-1,0.4-1,1v1.6h-0.7v-3.2h3.3v3.2H13.7z M22.9,55.1v-23v-0.7h16.4v23.7H22.9z"/>
			<path class="st1" d="M27.2,33.3c-0.5,0-1,0.4-1,1v17.9c0,0.5,0.4,1,1,1s1-0.4,1-1V34.3C28.1,33.7,27.7,33.3,27.2,33.3"/>
			<path class="st1" d="M31.1,33.3c-0.5,0-1,0.4-1,1v17.9c0,0.5,0.4,1,1,1c0.5,0,1-0.4,1-1V34.3C32.1,33.7,31.6,33.3,31.1,33.3"/>
			<path class="st1" d="M35,33.3c-0.5,0-1,0.4-1,1v17.9c0,0.5,0.4,1,1,1s1-0.4,1-1V34.3C36,33.7,35.5,33.3,35,33.3"/>
			<path class="st1" d="M36.3,12.2c0.5,0,1-0.4,1-1V9.9c0-0.5-0.4-1-1-1c-0.5,0-1,0.4-1,1v1.3C35.3,11.7,35.8,12.2,36.3,12.2"/>
			<path class="st1" d="M40.2,12.2c0.5,0,1-0.4,1-1V9.9c0-0.5-0.4-1-1-1c-0.5,0-1,0.4-1,1v1.3C39.3,11.7,39.7,12.2,40.2,12.2"/>
			<path class="st1" d="M44.2,12.2c0.5,0,1-0.4,1-1V9.9c0-0.5-0.4-1-1-1c-0.5,0-1,0.4-1,1v1.3C43.2,11.7,43.6,12.2,44.2,12.2"/>
			<path class="st1" d="M36.3,18.6c0.5,0,1-0.4,1-1v-1.3c0-0.5-0.4-1-1-1c-0.5,0-1,0.4-1,1v1.3C35.3,18.1,35.8,18.6,36.3,18.6"/>
			<path class="st1" d="M40.2,18.6c0.5,0,1-0.4,1-1v-1.3c0-0.5-0.4-1-1-1c-0.5,0-1,0.4-1,1v1.3C39.3,18.1,39.7,18.6,40.2,18.6"/>
			<path class="st1" d="M44.2,18.6c0.5,0,1-0.4,1-1v-1.3c0-0.5-0.4-1-1-1c-0.5,0-1,0.4-1,1v1.3C43.2,18.1,43.6,18.6,44.2,18.6"/>
			<path class="st1" d="M36.3,25c0.5,0,1-0.4,1-1v-1.3c0-0.5-0.4-1-1-1c-0.5,0-1,0.4-1,1V24C35.3,24.5,35.8,25,36.3,25"/>
			<path class="st1" d="M40.2,25c0.5,0,1-0.4,1-1v-1.3c0-0.5-0.4-1-1-1c-0.5,0-1,0.4-1,1V24C39.3,24.5,39.7,25,40.2,25"/>
			<path class="st1" d="M44.2,25c0.5,0,1-0.4,1-1v-1.3c0-0.5-0.4-1-1-1c-0.5,0-1,0.4-1,1V24C43.2,24.5,43.6,25,44.2,25"/>
			<path class="st1" d="M8.8,27.5c0.5,0,1-0.4,1-1v-1.3c0-0.5-0.4-1-1-1c-0.5,0-1,0.4-1,1v1.3C7.9,27.1,8.3,27.5,8.8,27.5"/>
			<path class="st1" d="M12.8,27.5c0.5,0,1-0.4,1-1v-1.3c0-0.5-0.4-1-1-1c-0.5,0-1,0.4-1,1v1.3C11.8,27.1,12.2,27.5,12.8,27.5"/>
			<path class="st1" d="M16.7,27.5c0.5,0,1-0.4,1-1v-1.3c0-0.5-0.4-1-1-1s-1,0.4-1,1v1.3C15.7,27.1,16.1,27.5,16.7,27.5"/>
			<path class="st1" d="M8.8,33.9c0.5,0,1-0.4,1-1v-1.3c0-0.5-0.4-1-1-1c-0.5,0-1,0.4-1,1V33C7.9,33.5,8.3,33.9,8.8,33.9"/>
			<path class="st1" d="M12.8,33.9c0.5,0,1-0.4,1-1v-1.3c0-0.5-0.4-1-1-1c-0.5,0-1,0.4-1,1V33C11.8,33.5,12.2,33.9,12.8,33.9"/>
			<path class="st1" d="M16.7,33.9c0.5,0,1-0.4,1-1v-1.3c0-0.5-0.4-1-1-1s-1,0.4-1,1V33C15.7,33.5,16.1,33.9,16.7,33.9"/>
			<path class="st1" d="M8.8,40.3c0.5,0,1-0.4,1-1v-1.3c0-0.5-0.4-1-1-1c-0.5,0-1,0.4-1,1v1.3C7.9,39.9,8.3,40.3,8.8,40.3"/>
			<path class="st1" d="M12.8,40.3c0.5,0,1-0.4,1-1v-1.3c0-0.5-0.4-1-1-1c-0.5,0-1,0.4-1,1v1.3C11.8,39.9,12.2,40.3,12.8,40.3"/>
			<path class="st1" d="M16.7,40.3c0.5,0,1-0.4,1-1v-1.3c0-0.5-0.4-1-1-1s-1,0.4-1,1v1.3C15.7,39.9,16.1,40.3,16.7,40.3"/>
			<path class="st1" d="M9.8,45.8v-1.3c0-0.5-0.4-1-1-1c-0.5,0-1,0.4-1,1v1.3c0,0.5,0.4,1,1,1C9.4,46.8,9.8,46.3,9.8,45.8"/>
			<path class="st1" d="M12.8,46.8c0.5,0,1-0.4,1-1v-1.3c0-0.5-0.4-1-1-1c-0.5,0-1,0.4-1,1v1.3C11.8,46.3,12.2,46.8,12.8,46.8"/>
			<path class="st1" d="M16.7,46.8c0.5,0,1-0.4,1-1v-1.3c0-0.5-0.4-1-1-1s-1,0.4-1,1v1.3C15.7,46.3,16.1,46.8,16.7,46.8"/>
			<path class="st1" d="M44.2,31.4c0.5,0,1-0.4,1-1v-1.3c0-0.5-0.4-1-1-1c-0.5,0-1,0.4-1,1v1.3C43.2,31,43.6,31.4,44.2,31.4"/>
			<path class="st1" d="M44.2,37.8c0.5,0,1-0.4,1-1v-1.3c0-0.5-0.4-1-1-1c-0.5,0-1,0.4-1,1v1.3C43.2,37.4,43.6,37.8,44.2,37.8"/>
			<path class="st1" d="M44.2,44.2c0.5,0,1-0.4,1-1v-1.3c0-0.5-0.4-1-1-1c-0.5,0-1,0.4-1,1v1.3C43.2,43.8,43.6,44.2,44.2,44.2"/>
			<path class="st1" d="M44.2,50.6c0.5,0,1-0.4,1-1v-1.3c0-0.5-0.4-1-1-1c-0.5,0-1,0.4-1,1v1.3C43.2,50.2,43.6,50.6,44.2,50.6"/>
			<path class="st1" d="M26.8,15.1c0-0.5-0.4-1-1-1H18c-0.5,0-1,0.4-1,1c0,0.5,0.4,1,1,1h7.9C26.4,16,26.8,15.6,26.8,15.1"/>
		</g>
	</g>
</g>
</svg>
