<?xml version="1.0" encoding="utf-8"?>
<!-- Generator: Adobe Illustrator 20.1.0, SVG Export Plug-In . SVG Version: 6.00 Build 0)  -->
<svg version="1.1" id="Layer_1" xmlns="http://www.w3.org/2000/svg" xmlns:xlink="http://www.w3.org/1999/xlink" x="0px" y="0px"
	 viewBox="0 0 55 55" style="enable-background:new 0 0 55 55;" xml:space="preserve">
<style type="text/css">
	.st0{clip-path:url(#SVGID_2_);}
	.st1{clip-path:url(#SVGID_4_);fill:#A8AAAC;}
	.st2{clip-path:url(#SVGID_4_);}
	.st3{clip-path:url(#SVGID_4_);fill:#3C92CB;}
</style>
<g id="Cloud">
	<g>
		<defs>
			<rect id="SVGID_1_" x="0" width="55" height="55"/>
		</defs>
		<clipPath id="SVGID_2_">
			<use xlink:href="#SVGID_1_"  style="overflow:visible;"/>
		</clipPath>
		<g class="st0">
			<defs>
				<rect id="SVGID_3_" x="0" width="55" height="55"/>
			</defs>
			<clipPath id="SVGID_4_">
				<use xlink:href="#SVGID_3_"  style="overflow:visible;"/>
			</clipPath>
			<path class="st1" d="M9.1,43.8c0,1.5-1.7,2.7-3.8,2.7c-2.1,0-3.8-1.2-3.8-2.7c0-1.5,1.7-2.7,3.8-2.7C7.4,41.1,9.1,42.3,9.1,43.8"
				/>
			<path class="st1" d="M53.5,43.8c0,1.5-1.7,2.7-3.8,2.7c-2.1,0-3.8-1.2-3.8-2.7c0-1.5,1.7-2.7,3.8-2.7
				C51.8,41.1,53.5,42.3,53.5,43.8"/>
			<path class="st2" d="M14.9,42.8h-4.6c-0.6-1.6-2.6-2.7-5-2.7c-2.9,0-5.2,1.7-5.2,3.7c0,2.1,2.3,3.7,5.2,3.7c2.4,0,4.4-1.2,5-2.7
				h4.6c3.1,0,5.6-1.8,5.6-4.1v-6.3c0-0.6-0.6-1-1.4-1c-0.8,0-1.4,0.5-1.4,1v6.3C17.7,41.9,16.5,42.8,14.9,42.8 M5.3,45.5
				C4,45.5,3,44.8,3,43.8c0-0.9,1.1-1.7,2.4-1.7c1.3,0,2.4,0.8,2.4,1.7C7.7,44.8,6.6,45.5,5.3,45.5"/>
			<path class="st2" d="M35.9,33.5c-0.8,0-1.4,0.5-1.4,1v6.3c0,2.3,2.5,4.1,5.6,4.1h4.6c0.6,1.6,2.6,2.7,5,2.7
				c2.9,0,5.2-1.7,5.2-3.7c0-2.1-2.3-3.7-5.2-3.7c-2.4,0-4.4,1.2-5,2.7h-4.6c-1.6,0-2.8-0.9-2.8-2v-6.3
				C37.3,33.9,36.6,33.5,35.9,33.5 M49.7,42.1c1.3,0,2.4,0.8,2.4,1.7c0,0.9-1.1,1.7-2.4,1.7s-2.4-0.8-2.4-1.7
				C47.3,42.9,48.4,42.1,49.7,42.1"/>
			<path class="st3" d="M31.3,51.3c0,1.5-1.7,2.7-3.8,2.7c-2.1,0-3.8-1.2-3.8-2.7c0-1.5,1.7-2.7,3.8-2.7
				C29.6,48.5,31.3,49.7,31.3,51.3"/>
			<path class="st2" d="M29,0c-5.7,0-11,2.3-13.8,5.8c-0.6-0.1-1.1-0.1-1.8-0.1c-4.8,0-8.6,2.8-8.6,6.3c0,0.5,0.1,0.9,0.2,1.4
				c-3.1,1.6-5,4.2-5,7.1c0,4.7,5.2,8.9,11.4,9.1h30.9C49.4,29.2,55,24.7,55,19.5c0-4.6-4.4-8.7-10.3-9.8C43.5,4.1,36.9,0,29,0
				 M52.2,19.5c0,4.1-4.5,7.7-10,8H11.5c-4.7-0.2-8.7-3.5-8.7-7.1c0-2.4,1.8-4.6,4.6-5.8C8,14.4,8.2,13.9,8,13.4
				c-0.2-0.5-0.3-0.9-0.3-1.4c0-2.3,2.6-4.2,5.8-4.2c0.7,0,1.4,0.1,2,0.2c0.7,0.2,1.4,0,1.8-0.5C19.4,4.2,24,2,29.1,2
				c6.8,0,12.4,3.7,13,8.5c0.1,0.5,0.5,0.8,1.2,0.9C48.3,12.1,52.2,15.5,52.2,19.5"/>
			<path class="st2" d="M27.5,33.5c-0.8,0-1.4,0.5-1.4,1v13.1c-2.1,0.4-3.7,1.8-3.8,3.5c0,1,0.5,2,1.4,2.7c0.9,0.7,2.2,1.1,3.6,1.2
				h0.1c2.8,0,5.1-1.6,5.2-3.7c0-1-0.5-2-1.4-2.7c-0.7-0.5-1.5-0.8-2.3-1V34.5C28.9,33.9,28.3,33.5,27.5,33.5 M29.9,51.3
				c0,0.9-1.1,1.7-2.4,1.7h-0.1c-0.6,0-1.2-0.2-1.6-0.5c-0.4-0.3-0.7-0.8-0.7-1.2c0-0.9,1.1-1.7,2.4-1.7h0.1c0.6,0,1.2,0.2,1.6,0.5
				C29.7,50.4,29.9,50.8,29.9,51.3"/>
		</g>
	</g>
</g>
</svg>
