<?xml version="1.0" encoding="utf-8"?>
<!-- Generator: Adobe Illustrator 20.1.0, SVG Export Plug-In . SVG Version: 6.00 Build 0)  -->
<svg version="1.1" id="Layer_1" xmlns="http://www.w3.org/2000/svg" xmlns:xlink="http://www.w3.org/1999/xlink" x="0px" y="0px"
	 viewBox="0 0 81 57" style="enable-background:new 0 0 81 57;" xml:space="preserve">
<style type="text/css">
	.st0{clip-path:url(#SVGID_2_);}
	.st1{clip-path:url(#SVGID_4_);}
</style>
<g id="E-shop">
	<g>
		<defs>
			<rect id="SVGID_1_" width="81" height="55"/>
		</defs>
		<clipPath id="SVGID_2_">
			<use xlink:href="#SVGID_1_"  style="overflow:visible;"/>
		</clipPath>
		<g class="st0">
			<defs>
				<rect id="SVGID_3_" width="81" height="55"/>
			</defs>
			<clipPath id="SVGID_4_">
				<use xlink:href="#SVGID_3_"  style="overflow:visible;"/>
			</clipPath>
			<path class="st1" d="M80.1,13.7c-0.8-0.9-1.9-1.4-3.1-1.4H15.1l-1.3-5.8c-0.3-1.2-1.1-2.2-2.3-2.7L2.8,0.2c-1-0.4-2.2,0-2.6,1
				c-0.4,1,0,2.1,1,2.5l8.7,3.6L19.5,52c0.4,1.8,2,3,3.9,3h47.6c1.1,0,2-0.9,2-1.9c0-1.1-0.9-1.9-2-1.9H23.4l-1.2-5.4h49.2
				c1.9,0,3.5-1.3,3.9-3l5.6-25.8C81.2,15.8,80.9,14.6,80.1,13.7 M71.5,42h-50l-5.6-25.8l61.1,0L71.5,42z"/>
		</g>
	</g>
</g>
</svg>
