<?xml version="1.0" encoding="utf-8"?>
<!-- Generator: Adobe Illustrator 20.1.0, SVG Export Plug-In . SVG Version: 6.00 Build 0)  -->
<svg version="1.1" id="Layer_1" xmlns="http://www.w3.org/2000/svg" xmlns:xlink="http://www.w3.org/1999/xlink" x="0px" y="0px"
	 viewBox="0 0 22 22" style="enable-background:new 0 0 22 22;" xml:space="preserve">
<style type="text/css">
	.st0{clip-path:url(#SVGID_2_);}
	.st1{clip-path:url(#SVGID_4_);}
</style>
<g id="g_x2B_">
	<g>
		<defs>
			<rect id="SVGID_1_" width="22" height="22"/>
		</defs>
		<clipPath id="SVGID_2_">
			<use xlink:href="#SVGID_1_"  style="overflow:visible;"/>
		</clipPath>
		<g class="st0">
			<defs>
				<rect id="SVGID_3_" width="22" height="22"/>
			</defs>
			<clipPath id="SVGID_4_">
				<use xlink:href="#SVGID_3_"  style="overflow:visible;"/>
			</clipPath>
			<path class="st1" d="M14.3,0H8.9C6.5,0,4.9,0.5,3.4,1.7c-1.2,1-1.9,2.4-1.9,3.8c0,2.2,1.7,4.5,4.9,4.5c0.3,0,0.6,0,0.9-0.1l0,0.1
				c-0.1,0.3-0.2,0.6-0.2,1C7,12,7.4,12.5,7.8,13l0.1,0.1l-0.1,0c-1.3,0.1-3.8,0.2-5.5,1.3c-2.1,1.2-2.3,3-2.3,3.5
				c0,2,2,4.1,6.3,4.1c5.1,0,7.7-2.7,7.7-5.4c0-2-1.2-3-2.5-4l-1.1-0.8c-0.3-0.3-0.7-0.6-0.7-1.2c0-0.6,0.4-1,0.8-1.4l0,0
				c1.2-0.9,2.5-1.9,2.5-4.1c0-2.2-1.4-3.3-2.1-3.9h1.8c0,0,0,0,0.1,0l1.5-0.9c0,0,0.1-0.1,0.1-0.1C14.4,0,14.4,0,14.3,0 M7.8,20.8
				c-3.1,0-5.2-1.4-5.2-3.5c0-1.4,0.9-2.4,2.5-3c1.3-0.4,3.1-0.5,3.1-0.5c0.3,0,0.4,0,0.7,0c2.2,1.5,3.2,2.3,3.2,3.8
				C12.1,19.6,10.4,20.8,7.8,20.8 M7.7,9.3c-2.6,0-3.7-3.3-3.7-5.1c0-0.9,0.2-1.6,0.6-2.1C5.2,1.5,6,1.1,6.8,1.1
				c2.4,0,3.7,3.1,3.7,5.3c0,0.3,0,1.4-0.7,2.1C9.3,8.9,8.4,9.3,7.7,9.3"/>
			<path class="st1" d="M21.9,10.3H19V7.5c0-0.1-0.1-0.1-0.1-0.1h-1.2c-0.1,0-0.1,0.1-0.1,0.1v2.8h-2.8c-0.1,0-0.1,0.1-0.1,0.1v1.2
				c0,0.1,0.1,0.1,0.1,0.1h2.8v2.8c0,0.1,0.1,0.1,0.1,0.1h1.2c0.1,0,0.1-0.1,0.1-0.1v-2.8h2.8c0.1,0,0.1-0.1,0.1-0.1v-1.2
				C22,10.3,21.9,10.3,21.9,10.3"/>
		</g>
	</g>
</g>
</svg>
