<?xml version="1.0" encoding="utf-8"?>
<!-- Generator: Adobe Illustrator 20.1.0, SVG Export Plug-In . SVG Version: 6.00 Build 0)  -->
<svg version="1.1" id="Layer_1" xmlns="http://www.w3.org/2000/svg" xmlns:xlink="http://www.w3.org/1999/xlink" x="0px" y="0px"
	 viewBox="0 0 67 55" style="enable-background:new 0 0 67 55;" xml:space="preserve">
<style type="text/css">
	.st0{clip-path:url(#SVGID_2_);}
	.st1{clip-path:url(#SVGID_4_);}
	.st2{clip-path:url(#SVGID_6_);}
</style>
<g id="home">
	<g>
		<defs>
			<rect id="SVGID_1_" width="67" height="55"/>
		</defs>
		<clipPath id="SVGID_2_">
			<use xlink:href="#SVGID_1_"  style="overflow:visible;"/>
		</clipPath>
		<g class="st0">
			<defs>
				<rect id="SVGID_3_" width="67" height="55"/>
			</defs>
			<clipPath id="SVGID_4_">
				<use xlink:href="#SVGID_3_"  style="overflow:visible;"/>
			</clipPath>
			<path class="st1" d="M25.5,29.5c0-1-1-1.9-2.3-1.9c-1.2,0-2.3,0.8-2.3,1.9c0,0.8-0.2,1.1-0.6,1.6c-0.5,0.7-1.2,1.7-1.2,3.5
				c0,1.8,0.7,2.8,1.2,3.5c0.4,0.5,0.6,0.8,0.6,1.6c0,0.8-0.2,1.1-0.6,1.6c-0.5,0.7-1.2,1.7-1.2,3.5c0,1,1,1.9,2.3,1.9
				s2.3-0.8,2.3-1.9c0-0.8,0.2-1.1,0.6-1.6c0.5-0.7,1.2-1.7,1.2-3.5c0-1.8-0.7-2.8-1.2-3.5c-0.4-0.5-0.6-0.8-0.6-1.6
				c0-0.8,0.2-1.1,0.6-1.6C24.8,32.3,25.5,31.3,25.5,29.5"/>
			<path class="st1" d="M41.5,44.8c0,1,1,1.9,2.3,1.9c1.2,0,2.3-0.8,2.3-1.9c0-0.8,0.2-1.1,0.6-1.6c0.5-0.7,1.2-1.7,1.2-3.5
				c0-1.8-0.7-2.8-1.2-3.5c-0.4-0.5-0.6-0.8-0.6-1.6c0-0.8,0.2-1.1,0.6-1.6c0.5-0.7,1.2-1.7,1.2-3.5c0-1-1-1.9-2.3-1.9
				c-1.2,0-2.3,0.8-2.3,1.9c0,0.8-0.2,1.1-0.6,1.6c-0.5,0.7-1.2,1.7-1.2,3.5c0,1.8,0.7,2.8,1.2,3.5c0.4,0.5,0.6,0.8,0.6,1.6
				c0,0.8-0.2,1.1-0.6,1.6C42.2,42.1,41.5,43.1,41.5,44.8"/>
		</g>
		<g class="st0">
			<defs>
				<rect id="SVGID_5_" width="67" height="55"/>
			</defs>
			<clipPath id="SVGID_6_">
				<use xlink:href="#SVGID_5_"  style="overflow:visible;"/>
			</clipPath>
			<path class="st2" d="M32.1,29.5c0,0.8-0.2,1.1-0.6,1.6c-0.5,0.7-1.2,1.7-1.2,3.5c0,1.8,0.7,2.8,1.2,3.5c0.4,0.5,0.6,0.8,0.6,1.6
				c0,0.8-0.2,1.1-0.6,1.6c-0.5,0.7-1.2,1.7-1.2,3.5c0,1,1,1.9,2.3,1.9s2.3-0.8,2.3-1.9c0-0.8,0.2-1.1,0.6-1.6
				c0.5-0.7,1.2-1.7,1.2-3.5c0-1.8-0.7-2.8-1.2-3.5c-0.4-0.5-0.6-0.8-0.6-1.6c0-0.8,0.2-1.1,0.6-1.6c0.5-0.7,1.2-1.7,1.2-3.5
				c0-1-1-1.9-2.3-1.9C33.1,27.7,32.1,28.5,32.1,29.5"/>
			<path class="st2" d="M66.2,23.7L35,0.6c-0.9-0.6-2.2-0.6-3,0L0.7,23.7c-0.7,0.5-0.9,1.3-0.6,2C0.5,26.5,1.3,27,2.3,27h7.1v25.9
				c0,1,1,1.9,2.3,1.9h43.8c1.2,0,2.3-0.8,2.3-1.9V27h7.1c0.9,0,1.8-0.5,2.1-1.2C67.1,25.1,66.9,24.3,66.2,23.7 M53.1,51.1H13.8V26
				l19.6-14.4L53.1,26V51.1z M56.2,23.3L35,7.7c-0.9-0.6-2.1-0.6-3,0L10.7,23.3H8.1L33.5,4.5l25.3,18.8H56.2z"/>
		</g>
	</g>
</g>
</svg>
