<?xml version="1.0" encoding="utf-8"?>
<!-- Generator: Adobe Illustrator 20.1.0, SVG Export Plug-In . SVG Version: 6.00 Build 0)  -->
<svg version="1.1" id="Layer_1" xmlns="http://www.w3.org/2000/svg" xmlns:xlink="http://www.w3.org/1999/xlink" x="0px" y="0px"
	 viewBox="0 0 49 69" style="enable-background:new 0 0 49 69;" xml:space="preserve">
<style type="text/css">
	.st0{clip-path:url(#SVGID_2_);}
	.st1{clip-path:url(#SVGID_4_);fill:#2C2F33;}
	.st2{clip-path:url(#SVGID_6_);fill:#3C92CB;}
</style>
<g id="Iot">
	<g>
		<defs>
			<rect id="SVGID_1_" x="-10" width="69" height="69"/>
		</defs>
		<clipPath id="SVGID_2_">
			<use xlink:href="#SVGID_1_"  style="overflow:visible;"/>
		</clipPath>
		<g class="st0">
			<defs>
				<rect id="SVGID_3_" x="-10" width="69" height="69"/>
			</defs>
			<clipPath id="SVGID_4_">
				<use xlink:href="#SVGID_3_"  style="overflow:visible;"/>
			</clipPath>
			<path class="st1" d="M1.8,12.3C14-0.2,34.1-0.4,46.5,11.8l-3.6,0c-0.8,0-1.4,0.6-1.4,1.4c0,0.8,0.6,1.4,1.4,1.4h0l6.9-0.1
				c0.8,0,1.4-0.6,1.4-1.4l-0.1-6.9c0-0.8-0.6-1.4-1.4-1.4c-0.8,0-1.4,0.6-1.4,1.4l0,3.6C34.9-3.5,13.1-3.2-0.2,10.3
				c-4.6,4.7-7.7,10.6-9.1,17c-1.3,6.3-0.9,12.7,1.3,18.7c0.2,0.6,0.7,0.9,1.3,0.9c0.2,0,0.3,0,0.5-0.1c0.7-0.3,1.1-1.1,0.8-1.8
				C-9.5,33.6-6.7,21,1.8,12.3"/>
			<path class="st1" d="M0.4,59c6.5,6.3,15,9.8,24,9.8h0.4c9.2-0.1,17.8-3.8,24.2-10.4c4.6-4.7,7.7-10.6,9.1-17
				c1.3-6.3,0.9-12.7-1.3-18.7c-0.3-0.7-1.1-1.1-1.8-0.8c-0.7,0.3-1.1,1.1-0.8,1.8c4.1,11.5,1.4,24.1-7.2,32.8
				c-5.9,6-13.8,9.4-22.3,9.5c-8.4,0.1-16.4-3.1-22.5-9l3.6,0c0.8,0,1.4-0.6,1.4-1.4c0-0.8-0.6-1.4-1.4-1.4h0l-6.9,0.1
				c-0.4,0-0.7,0.2-1,0.4c-0.3,0.3-0.4,0.6-0.4,1l0.1,6.9c0,0.8,0.6,1.4,1.4,1.4h0c0.8,0,1.4-0.6,1.4-1.4L0.4,59z"/>
		</g>
		<g class="st0">
			<defs>
				<rect id="SVGID_5_" x="-10" width="69" height="69"/>
			</defs>
			<clipPath id="SVGID_6_">
				<use xlink:href="#SVGID_5_"  style="overflow:visible;"/>
			</clipPath>
			<path class="st2" d="M43.7,26.4c-3.1-7.4-10-12.3-18-12.8c-0.1,0-0.3,0-0.4,0h-0.1c-0.1,0-0.2,0-0.3,0h0c-0.2,0-0.3,0-0.5,0
				c-2.7,0-5.4,0.5-8,1.6c-5.1,2.1-9.1,6.1-11.3,11.3c-2.1,5.1-2.1,10.8,0,15.9C8.4,50.2,16,55.2,24.5,55.2c0.1,0,0.2,0,0.3,0
				c0.1,0,0.1,0,0.2,0c0,0,0.1,0,0.1,0c0.1,0,0.2,0,0.4,0h0.1c0,0,0.1,0,0.1,0c2.3-0.1,4.6-0.6,6.8-1.5c5.1-2.1,9.1-6.1,11.3-11.3
				C45.8,37.2,45.8,31.6,43.7,26.4C43.7,26.4,43.7,26.4,43.7,26.4C43.7,26.4,43.7,26.4,43.7,26.4 M17.2,17.9c-1.5,2-2.8,4.6-3.6,7.7
				H8.7C10.6,22.2,13.5,19.5,17.2,17.9 M7.4,28.4H13c-0.3,1.9-0.5,3.9-0.5,6c0,2.1,0.2,4.1,0.5,6H7.4C6,36.5,6,32.3,7.4,28.4
				 M8.7,43.2h5c0.9,3.1,2.2,5.8,3.8,7.8C13.8,49.5,10.7,46.8,8.7,43.2 M23.6,52.2c-2.9-0.9-5.5-4.3-7-9h7V52.2z M23.6,40.4h-7.7
				c-0.4-1.9-0.6-3.9-0.6-6c0-2.1,0.2-4.2,0.5-6h7.8V40.4z M23.6,25.6h-7.1c1.4-4.8,4-8.2,7.1-9V25.6z M40.2,25.6h-3.9
				c-0.7-2.7-1.7-5-3-6.9C36.1,20.3,38.5,22.6,40.2,25.6 M26.3,16.5c3.1,0.8,5.7,4.2,7.1,9h-7.1V16.5z M26.3,28.4h7.8
				c0.4,1.9,0.5,3.9,0.5,6c0,2.1-0.2,4.1-0.6,6h-7.7V28.4z M26.3,52.2v-9h7C31.8,47.9,29.2,51.4,26.3,52.2 M33,50.3
				c1.4-1.9,2.5-4.3,3.2-7.1h3.9C38.5,46.2,36,48.7,33,50.3 M41.4,40.4h-4.6c0.4-1.9,0.5-3.9,0.5-6c0-2.1-0.2-4.1-0.5-6h4.5
				C42.8,32.3,42.8,36.5,41.4,40.4"/>
		</g>
	</g>
</g>
</svg>
