<?xml version="1.0" encoding="utf-8"?>
<!-- Generator: Adobe Illustrator 20.1.0, SVG Export Plug-In . SVG Version: 6.00 Build 0)  -->
<svg version="1.1" id="Layer_1" xmlns="http://www.w3.org/2000/svg" xmlns:xlink="http://www.w3.org/1999/xlink" x="0px" y="0px"
	 viewBox="0 0 62 57" style="enable-background:new 0 0 62 57;" xml:space="preserve">
<style type="text/css">
	.st0{clip-path:url(#SVGID_2_);}
	.st1{clip-path:url(#SVGID_4_);}
</style>
<g id="Light">
	<g>
		<defs>
			<rect id="SVGID_1_" width="62" height="57"/>
		</defs>
		<clipPath id="SVGID_2_">
			<use xlink:href="#SVGID_1_"  style="overflow:visible;"/>
		</clipPath>
		<g class="st0">
			<defs>
				<rect id="SVGID_3_" width="62" height="57"/>
			</defs>
			<clipPath id="SVGID_4_">
				<use xlink:href="#SVGID_3_"  style="overflow:visible;"/>
			</clipPath>
			<path class="st1" d="M35.1,24.1c0-2.5-0.8-5-2.3-7.1c-1.3-1.9-3.2-3.6-5.5-4.8C26.9,8.5,23.4,5.6,19,5V2.3h14.2
				c6,0,10.9,4,10.9,8.9v25.7c0,0.6,0.6,1.1,1.4,1.1c0.8,0,1.4-0.5,1.4-1.1V11.2C46.9,5,40.8,0,33.2,0H17.6c-0.8,0-1.4,0.5-1.4,1.1
				V5c-4.5,0.5-8.1,3.5-8.5,7.3c-2.2,1.2-4.1,2.9-5.5,4.8C0.8,19.2,0,21.6,0,24.1c0,0.6,0.6,1.1,1.4,1.1h32.3
				C34.5,25.3,35.1,24.8,35.1,24.1 M17.5,7.2c3.4,0,6.3,2,6.9,4.6H10.6C11.3,9.2,14.1,7.2,17.5,7.2 M2.8,23c0.4-3.6,2.8-6.9,6.6-8.9
				h16.3c3.8,2,6.2,5.3,6.6,8.9H2.8z"/>
			<path class="st1" d="M15.4,19.1H7.7c-0.8,0-1.4,0.5-1.4,1.1c0,0.6,0.6,1.1,1.4,1.1h7.7c0.8,0,1.4-0.5,1.4-1.1
				C16.8,19.6,16.2,19.1,15.4,19.1"/>
			<path class="st1" d="M10.8,28.4l-4.3,3.5C6,32.3,6,33,6.6,33.5c0.3,0.2,0.6,0.3,1,0.3s0.7-0.1,1-0.3l4.3-3.5
				c0.5-0.4,0.5-1.2,0-1.6C12.2,28,11.3,28,10.8,28.4"/>
			<path class="st1" d="M28.7,31.9l-4.3-3.5c-0.5-0.4-1.4-0.4-2,0c-0.5,0.4-0.5,1.2,0,1.6l4.3,3.5c0.3,0.2,0.6,0.3,1,0.3
				s0.7-0.1,1-0.3C29.2,33,29.2,32.3,28.7,31.9"/>
			<path class="st1" d="M17.6,29.2c-0.8,0-1.4,0.5-1.4,1.1v3.7c0,0.6,0.6,1.1,1.4,1.1c0.8,0,1.4-0.5,1.4-1.1v-3.7
				C19,29.7,18.4,29.2,17.6,29.2"/>
		</g>
	</g>
</g>
</svg>
