<?xml version="1.0" encoding="utf-8"?>
<!-- Generator: Adobe Illustrator 20.1.0, SVG Export Plug-In . SVG Version: 6.00 Build 0)  -->
<svg version="1.1" id="Layer_1" xmlns="http://www.w3.org/2000/svg" xmlns:xlink="http://www.w3.org/1999/xlink" x="0px" y="0px"
	 viewBox="0 0 190 80" style="enable-background:new 0 0 190 80;" xml:space="preserve">
<style type="text/css">
	.st0{clip-path:url(#SVGID_2_);fill:#706D6E;}
	.st1{clip-path:url(#SVGID_2_);}
	.st2{clip-path:url(#SVGID_4_);fill:#706D6E;}
	.st3{clip-path:url(#SVGID_4_);fill:#7DC242;}
</style>
<g id="Artwork_1">
	<g>
		<defs>
			<rect id="SVGID_1_" x="0" width="190" height="80"/>
		</defs>
		<clipPath id="SVGID_2_">
			<use xlink:href="#SVGID_1_"  style="overflow:visible;"/>
		</clipPath>
		<polygon class="st0" points="9.5,71.4 7.2,71.4 7.2,79.6 4.5,79.6 4.5,71.4 2.3,71.4 2.3,69.2 9.5,69.2 		"/>
		<polygon class="st0" points="22.9,79.6 17,79.6 17,69.2 22.9,69.2 22.9,71.4 19.7,71.4 19.7,73.2 22.8,73.2 22.8,75.5 19.7,75.5 
			19.7,77.4 22.9,77.4 		"/>
		<g class="st1">
			<defs>
				<rect id="SVGID_3_" x="0" width="190" height="80"/>
			</defs>
			<clipPath id="SVGID_4_">
				<use xlink:href="#SVGID_3_"  style="overflow:visible;"/>
			</clipPath>
			<path class="st2" d="M38.5,79.4c-0.9,0.4-1.7,0.5-2.5,0.5c-1.3,0-2.5-0.4-3.6-1.3c-1.3-1.1-2-2.5-2-4.2c0-1.7,0.7-3.1,2-4.2
				c1-0.8,2.2-1.3,3.6-1.3c0.7,0,1.5,0.2,2.5,0.5v3.3c-0.3-0.3-0.5-0.6-0.8-0.7c-0.5-0.3-1-0.4-1.6-0.4c-0.7,0-1.3,0.2-1.9,0.6
				c-0.7,0.5-1,1.3-1,2.2c0,0.9,0.3,1.7,1,2.2c0.5,0.4,1.1,0.6,1.9,0.6c0.6,0,1.1-0.1,1.6-0.4c0.3-0.2,0.5-0.4,0.8-0.7V79.4z"/>
			<polygon class="st2" points="55.9,79.6 53.2,79.6 53.2,75.3 49.2,75.3 49.2,79.6 46.5,79.6 46.5,69.2 49.2,69.2 49.2,73.2 
				53.2,73.2 53.2,69.2 55.9,69.2 			"/>
			<polygon class="st2" points="74.9,79.6 72.1,79.6 67.1,73.2 67.1,79.6 64.3,79.6 64.3,69.2 67.1,69.2 72.1,75.6 72.1,69.2 
				74.9,69.2 			"/>
			<path class="st2" d="M94.5,74.4c0,1.4-0.5,2.7-1.4,3.7C92,79.4,90.5,80,88.6,80c-1.8,0-3.3-0.6-4.4-1.8c-1-1.1-1.4-2.3-1.4-3.7
				c0-0.6,0.1-1.3,0.4-2c0.3-0.7,0.6-1.3,1-1.8c1.1-1.2,2.6-1.8,4.4-1.8c1.9,0,3.3,0.6,4.4,1.8C94,71.7,94.5,73,94.5,74.4
				 M91.6,74.4c0-0.7-0.2-1.4-0.7-1.9c-0.6-0.7-1.4-1-2.3-1c-0.6,0-1.2,0.2-1.7,0.5c-0.5,0.4-0.9,0.8-1.1,1.4
				c-0.1,0.3-0.2,0.7-0.2,1c0,0.7,0.2,1.3,0.7,1.9c0.6,0.7,1.3,1,2.3,1s1.7-0.3,2.3-1C91.4,75.8,91.6,75.1,91.6,74.4"/>
			<polygon class="st2" points="108.5,79.6 102.4,79.6 102.4,69.2 105.2,69.2 105.2,77.4 108.5,77.4 			"/>
			<path class="st2" d="M127.3,74.4c0,1.4-0.5,2.7-1.4,3.7c-1.1,1.2-2.6,1.8-4.4,1.8c-1.8,0-3.3-0.6-4.4-1.8c-1-1.1-1.4-2.3-1.4-3.7
				c0-0.6,0.1-1.3,0.4-2c0.3-0.7,0.6-1.3,1-1.8c1.1-1.2,2.6-1.8,4.4-1.8c1.9,0,3.3,0.6,4.4,1.8C126.8,71.7,127.3,73,127.3,74.4
				 M124.5,74.4c0-0.7-0.2-1.4-0.7-1.9c-0.6-0.7-1.4-1-2.3-1c-0.6,0-1.2,0.2-1.7,0.5c-0.5,0.4-0.9,0.8-1.1,1.4
				c-0.1,0.3-0.2,0.7-0.2,1c0,0.7,0.2,1.3,0.7,1.9c0.6,0.7,1.3,1,2.3,1s1.7-0.3,2.3-1C124.2,75.8,124.5,75.1,124.5,74.4"/>
			<path class="st2" d="M145.8,73.8c0,1.1-0.1,2.1-0.4,2.8c-0.4,1.1-1,1.9-1.9,2.5c-0.9,0.6-1.9,0.8-3.1,0.8c-1.9,0-3.4-0.7-4.4-2
				c-0.8-1-1.2-2.2-1.2-3.6c0-1.5,0.5-2.8,1.4-3.8c1-1.2,2.5-1.8,4.3-1.8c1.2,0,2.3,0.3,3.2,1c0.6,0.4,1.1,1.1,1.6,2l-2.6,1.1
				c-0.2-0.5-0.5-0.9-0.8-1.1c-0.4-0.3-0.9-0.5-1.5-0.5c-1.2,0-2,0.6-2.5,1.8c-0.2,0.4-0.3,0.9-0.3,1.4c0,1,0.3,1.8,1,2.5
				c0.5,0.5,1.1,0.7,1.9,0.7c0.7,0,1.2-0.2,1.7-0.6c0.3-0.3,0.4-0.7,0.5-1.2h-2.3v-2.1H145.8z"/>
			<rect x="153.8" y="69.2" class="st2" width="2.7" height="10.5"/>
			<polygon class="st2" points="171,79.6 165,79.6 165,69.2 171,69.2 171,71.4 167.7,71.4 167.7,73.2 170.8,73.2 170.8,75.5 
				167.7,75.5 167.7,77.4 171,77.4 			"/>
			<path class="st2" d="M186.2,76.2c0,1.8-0.8,2.9-2.3,3.5c-0.5,0.2-1.1,0.3-1.8,0.3c-1.3,0-2.5-0.4-3.7-1.2l1.2-2.2
				c0.8,0.7,1.6,1.1,2.4,1.1c0.4,0,0.7-0.1,0.9-0.2c0.3-0.2,0.4-0.4,0.4-0.8c0-0.3-0.2-0.6-0.5-0.8c-0.2-0.2-0.6-0.3-1.2-0.5
				c-0.7-0.2-1.1-0.3-1.3-0.4c-0.3-0.1-0.5-0.3-0.7-0.4c-0.6-0.5-0.8-1.2-0.8-2.1c0-1,0.3-1.8,0.9-2.4c0.7-0.8,1.6-1.1,2.7-1.1
				c1.1,0,2.2,0.3,3.3,0.9l-1.1,2.1c-0.6-0.5-1.2-0.7-1.8-0.7c-0.3,0-0.6,0.1-0.8,0.2c-0.3,0.2-0.4,0.4-0.4,0.7
				c0,0.3,0.2,0.5,0.5,0.7c0.2,0.1,0.6,0.3,1.4,0.5c1,0.3,1.7,0.7,2.1,1.2C186,74.9,186.2,75.5,186.2,76.2"/>
			<path class="st2" d="M14,29c0.1,0,0.6,0,1.3,0.1c0.8,0,1.7,0.2,2.7,0.5c1,0.3,2.1,0.8,3.3,1.5c1.2,0.7,2.2,1.6,3.2,2.8
				c1,1.2,1.8,2.8,2.5,4.7c0.6,1.9,1,4.2,1,7v15.7h-7.6V45.5c0-0.9-0.1-1.8-0.2-2.8c-0.2-0.9-0.5-1.8-0.9-2.6
				c-0.5-0.8-1.1-1.4-1.9-1.9c-0.8-0.5-1.9-0.8-3.3-0.8s-2.5,0.3-3.3,0.8c-0.8,0.5-1.5,1.2-1.9,1.9c-0.5,0.8-0.8,1.7-0.9,2.6
				c-0.2,0.9-0.2,1.9-0.2,2.8v15.7H0V45.5c0-2.8,0.3-5.1,1-7c0.6-1.9,1.5-3.4,2.5-4.7c1-1.2,2.1-2.2,3.2-2.8
				c1.2-0.7,2.3-1.1,3.3-1.5c1-0.3,1.9-0.5,2.7-0.5C13.4,29,13.8,29,14,29"/>
			<path class="st2" d="M59.5,41.5c0.1,0.6,0.2,1.3,0.2,1.9c0.1,0.7,0.1,1.4,0.1,2.1v1.1H38c0.1,0.7,0.2,1.4,0.3,2.1
				c0.1,0.7,0.3,1.4,0.6,2.1c0.5,1.1,1.2,2,2.1,2.8c1,0.8,2.3,1.2,4,1.2c1.7,0,3-0.4,4-1.2c1-0.8,1.7-1.8,2.1-2.8h8.1
				c-0.3,1.4-0.8,2.7-1.4,3.8c-0.6,1.1-1.3,2-2,2.8c-0.7,0.8-1.5,1.4-2.3,1.9c-0.8,0.5-1.6,0.9-2.4,1.3c-1.9,0.7-3.9,1.1-6,1.1
				c-2.8,0-5.2-0.6-7.4-1.7c-0.9-0.5-1.8-1.1-2.7-1.9c-0.9-0.8-1.7-1.7-2.4-2.9c-0.7-1.2-1.2-2.5-1.6-4.1c-0.4-1.6-0.6-3.5-0.6-5.6
				c0-2.1,0.2-4,0.6-5.6c0.4-1.6,1-3,1.6-4.2c0.7-1.2,1.5-2.2,2.4-2.9c0.9-0.8,1.8-1.4,2.7-1.9c2.2-1.2,4.6-1.8,7.4-1.9
				c2.3,0.1,4.4,0.6,6.4,1.4c0.8,0.4,1.7,0.9,2.5,1.5c0.8,0.6,1.6,1.3,2.4,2.2c0.7,0.9,1.4,1.9,1.9,3.2
				C58.8,38.4,59.2,39.8,59.5,41.5 M51.6,41.5c-0.2-0.7-0.5-1.3-0.8-2c-0.3-0.7-0.7-1.3-1.3-1.8c-0.5-0.5-1.2-1-1.9-1.3
				c-0.7-0.3-1.6-0.5-2.6-0.5c-1,0-1.9,0.2-2.6,0.5c-0.7,0.3-1.4,0.7-1.9,1.3c-0.5,0.5-1,1.1-1.3,1.8c-0.3,0.7-0.6,1.3-0.7,2H51.6z"
				/>
			<path class="st2" d="M74.1,61.1H69l-7.7-31.4H69l5.1,23.5l5.1-23.5h7.2l-7.2,31.4H74.1z M92,61.1h-5.1l-7.2-31.4h7.2L92,53.2
				l5.1-23.5h7.7l-7.7,31.4H92z"/>
			<path class="st2" d="M114.1,37.1v13.8c0.1,0.5,0.4,0.9,0.7,1.4c0.3,0.3,0.7,0.6,1.2,0.9c0.5,0.3,1.2,0.4,2,0.4h4.7v7.5h-7.6
				c-1.6-0.2-3.1-0.6-4.4-1.4c-1.1-0.6-2.1-1.5-3-2.8c-0.9-1.2-1.3-2.9-1.3-5V21.3h7.6v8.4h15.4v7.4H114.1z"/>
			<polygon class="st2" points="168.5,61.1 160.9,61.1 160.9,19.4 168.5,19.4 168.5,42.3 177.8,29.8 186.2,29.8 176.6,42.8 
				190,61.1 181.6,61.1 172.3,48.5 168.5,53.4 			"/>
			<path class="st3" d="M156.1,33.9c0,8.2-6.7,14.9-15,14.9s-15-6.7-15-14.9s6.7-14.9,15-14.9S156.1,25.7,156.1,33.9"/>
			<path class="st2" d="M141.2,52.7c-10.4,0-18.9-8.4-18.9-18.8s8.5-18.8,18.9-18.8S160,23.6,160,33.9S151.6,52.7,141.2,52.7
				 M141.2,22.9c-6.1,0-11.1,4.9-11.1,11s5,11,11.1,11c6.1,0,11.1-4.9,11.1-11S147.3,22.9,141.2,22.9"/>
			<path class="st2" d="M158.4,5.5c0,3-2.5,5.5-5.5,5.5s-5.5-2.5-5.5-5.5c0-3,2.5-5.5,5.5-5.5S158.4,2.5,158.4,5.5"/>
			<polygon class="st2" points="148,21.6 144.9,20.3 150.4,6.5 153.5,7.8 			"/>
			<path class="st3" d="M155.2,5.4c0,1.2-1,2.1-2.2,2.1s-2.2-1-2.2-2.1c0-1.2,1-2.1,2.2-2.1S155.2,4.2,155.2,5.4"/>
		</g>
	</g>
</g>
</svg>
