<?xml version="1.0" encoding="utf-8"?>
<!-- Generator: Adobe Illustrator 20.1.0, SVG Export Plug-In . SVG Version: 6.00 Build 0)  -->
<svg version="1.1" id="Layer_1" xmlns="http://www.w3.org/2000/svg" xmlns:xlink="http://www.w3.org/1999/xlink" x="0px" y="0px"
	 viewBox="0 0 62 57" style="enable-background:new 0 0 62 57;" xml:space="preserve">
<style type="text/css">
	.st0{clip-path:url(#SVGID_2_);}
	.st1{clip-path:url(#SVGID_4_);}
	.st2{clip-path:url(#SVGID_6_);}
</style>
<g id="mac">
	<g>
		<defs>
			<rect id="SVGID_1_" x="0" width="62" height="57"/>
		</defs>
		<clipPath id="SVGID_2_">
			<use xlink:href="#SVGID_1_"  style="overflow:visible;"/>
		</clipPath>
		<g class="st0">
			<defs>
				<rect id="SVGID_3_" x="0" width="62" height="57"/>
			</defs>
			<clipPath id="SVGID_4_">
				<use xlink:href="#SVGID_3_"  style="overflow:visible;"/>
			</clipPath>
			<path class="st1" d="M52.5,0H9.5C4.3,0,0,4.1,0,9.1v38.8c0,5,4.3,9.1,9.5,9.1h42.9c5.3,0,9.5-4.1,9.5-9.1V9.1
				C62,4.1,57.7,0,52.5,0 M3.4,9.1c0-3.2,2.8-5.9,6.1-5.9h42.9c3.4,0,6.1,2.6,6.1,5.9v28.5c0,3.2-2.8,5.9-6.1,5.9H9.5
				c-3.4,0-6.1-2.6-6.1-5.9V9.1z M52.5,53.7H9.5c-3.4,0-6.1-2.6-6.1-5.9v-3.3c1.7,1.3,3.8,2.1,6.1,2.1h42.9c2.3,0,4.5-0.8,6.1-2.1
				v3.3C58.6,51.1,55.8,53.7,52.5,53.7"/>
		</g>
		<g class="st0">
			<defs>
				<rect id="SVGID_5_" x="0" width="62" height="57"/>
			</defs>
			<clipPath id="SVGID_6_">
				<use xlink:href="#SVGID_5_"  style="overflow:visible;"/>
			</clipPath>
			<path class="st2" d="M30.7,17.3c0,0,0.1,0,0.1,0c1.2,0,2.5-0.6,3.3-1.6c0.8-1,1.2-2.2,1-3.3c-0.1-0.4-0.5-0.7-0.9-0.7
				c-1.2,0.1-2.5,0.8-3.3,1.7c-0.9,1-1.3,2.2-1.1,3.3C30,17,30.3,17.2,30.7,17.3"/>
			<path class="st2" d="M28.3,33.9L28.3,33.9c0.9,0,1.5-0.3,2-0.5c0.4-0.2,0.6-0.3,1.1-0.3c0.4,0,0.6,0.1,1,0.2
				c0.4,0.2,1.1,0.5,1.9,0.5l0,0c2.3,0,3.8-2.1,4.5-3.2c0.6-0.9,0.8-1.3,1.3-2.3c0.2-0.4,0.2-0.9,0-1.3c-0.2-0.4-0.5-0.7-1-0.9
				c-1.2-0.4-1.6-1.7-1.3-2.6c0.2-0.5,0.5-0.8,1-1.1c0.4-0.2,0.8-0.6,0.9-1.1c0.1-0.5,0-1-0.3-1.3c-1.2-1.4-3-2.3-4.7-2.3
				c-1.2,0-2,0.3-2.6,0.5c-0.4,0.1-0.6,0.2-0.8,0.2c-0.2,0-0.5-0.1-0.9-0.2c-0.6-0.2-1.4-0.5-2.4-0.5c-2,0-3.9,1.1-5.1,2.9
				c-0.5,0.7-0.8,1.5-0.9,2.4c-0.4,2.5,0.3,5.4,1.9,7.8C24.5,31.8,25.9,33.9,28.3,33.9 M25.3,23.6c0.1-0.5,0.2-0.9,0.4-1.2
				c0.6-0.8,1.4-1.4,2.2-1.4c0.4,0,0.8,0.1,1.3,0.3c0.6,0.2,1.3,0.4,2.1,0.4c0.8,0,1.4-0.2,2-0.4c0.5-0.2,0.8-0.3,1.4-0.3
				c0.2,0,0.5,0,0.7,0.1c-0.3,0.4-0.5,0.8-0.7,1.3c-0.8,2.1-0.1,4.5,1.7,5.9c-0.1,0.2-0.2,0.3-0.3,0.5c-1.1,1.6-1.6,1.7-1.7,1.7
				c-0.1,0-0.2,0-0.5-0.2c-0.5-0.2-1.2-0.5-2.4-0.5h0c-1.2,0-1.9,0.3-2.4,0.5c-0.3,0.1-0.4,0.2-0.6,0.2h0c-0.2,0-0.6-0.2-1.6-1.6
				C25.5,27.4,25,25.3,25.3,23.6"/>
		</g>
	</g>
</g>
</svg>
