<?xml version="1.0" encoding="utf-8"?>
<!-- Generator: Adobe Illustrator 20.1.0, SVG Export Plug-In . SVG Version: 6.00 Build 0)  -->
<svg version="1.1" id="Layer_1" xmlns="http://www.w3.org/2000/svg" xmlns:xlink="http://www.w3.org/1999/xlink" x="0px" y="0px"
	 viewBox="0 0 49 69" style="enable-background:new 0 0 49 69;" xml:space="preserve">
<style type="text/css">
	.st0{clip-path:url(#SVGID_2_);}
	.st1{clip-path:url(#SVGID_4_);}
</style>
<g id="mobile-app">
	<g>
		<defs>
			<rect id="SVGID_1_" width="49" height="69"/>
		</defs>
		<clipPath id="SVGID_2_">
			<use xlink:href="#SVGID_1_"  style="overflow:visible;"/>
		</clipPath>
		<g class="st0">
			<defs>
				<rect id="SVGID_3_" width="49" height="69"/>
			</defs>
			<clipPath id="SVGID_4_">
				<use xlink:href="#SVGID_3_"  style="overflow:visible;"/>
			</clipPath>
			<path class="st1" d="M38,45.7c-0.8,0-1.4,0.6-1.4,1.4v6.3H2.8V10.2h33.8v6.5c0,0.8,0.6,1.4,1.4,1.4c0.8,0,1.4-0.6,1.4-1.4V1.4
				C39.3,0.6,38.7,0,38,0H1.4C0.6,0,0,0.6,0,1.4v66.2C0,68.4,0.6,69,1.4,69H38c0.8,0,1.4-0.6,1.4-1.4V47.1
				C39.3,46.3,38.7,45.7,38,45.7 M36.6,7.4H2.8V2.8h33.8V7.4z M2.8,56.2h33.8v10H2.8V56.2z"/>
			<path class="st1" d="M21.8,61.1c0,1.2-0.9,2.1-2.1,2.1s-2.1-1-2.1-2.1c0-1.2,0.9-2.1,2.1-2.1S21.8,59.9,21.8,61.1"/>
			<path class="st1" d="M26.5,35.1c-0.3-0.7-1.1-1.1-1.8-0.8l-0.9,0.3c-0.1-0.2-0.3-0.4-0.4-0.6l0.6-0.7c0.5-0.6,0.4-1.5-0.2-2
				c-0.6-0.5-1.5-0.4-2,0.2l-0.6,0.7c-0.2-0.1-0.4-0.2-0.7-0.3l0.2-0.9c0.1-0.8-0.4-1.5-1.1-1.6c-0.8-0.1-1.5,0.4-1.6,1.2l-0.2,0.9
				c-0.2,0-0.5,0-0.7,0.1l-0.3-0.9c-0.3-0.7-1.1-1.1-1.8-0.8c-0.7,0.3-1.1,1.1-0.8,1.8l0.3,0.9c-0.2,0.1-0.4,0.3-0.6,0.4l-0.7-0.6
				c-0.6-0.5-1.5-0.4-2,0.2c-0.5,0.6-0.4,1.5,0.2,2l0.7,0.6c-0.1,0.2-0.2,0.4-0.3,0.7L11,35.5c-0.8-0.1-1.5,0.4-1.6,1.2
				c-0.1,0.8,0.4,1.5,1.1,1.6l0.9,0.2c0,0.3,0,0.5,0.1,0.7l-0.9,0.3c-0.7,0.3-1.1,1.1-0.8,1.8c0.3,0.7,1.1,1.1,1.8,0.8l0.9-0.3
				c0.1,0.2,0.3,0.4,0.4,0.6l-0.6,0.7c-0.5,0.6-0.4,1.5,0.2,2c0.6,0.5,1.5,0.4,2-0.2l0.6-0.7c0.2,0.1,0.4,0.2,0.7,0.3l-0.2,0.9
				c-0.1,0.8,0.4,1.5,1.1,1.6c0.8,0.1,1.5-0.4,1.6-1.2l0.2-0.9c0.2,0,0.5,0,0.7-0.1l0.3,0.9c0.3,0.7,1.1,1.1,1.8,0.8
				c0.7-0.3,1.1-1.1,0.8-1.8L21.7,44c0.2-0.1,0.4-0.3,0.6-0.4l0.7,0.6c0.6,0.5,1.5,0.4,2-0.2c0.5-0.6,0.4-1.5-0.2-2l-0.7-0.6
				c0.1-0.2,0.2-0.4,0.3-0.7l0.9,0.2c0.8,0.1,1.5-0.4,1.6-1.2c0.1-0.8-0.4-1.5-1.1-1.6L24.9,38c0-0.3,0-0.5-0.1-0.7l0.9-0.3
				C26.4,36.6,26.8,35.8,26.5,35.1 M22.1,38.9L22.1,38.9c-0.4,2.2-2.4,3.7-4.6,3.3c-2.2-0.4-3.6-2.5-3.2-4.7
				c0.4-2.2,2.4-3.7,4.6-3.3C21,34.6,22.4,36.7,22.1,38.9L22.1,38.9z"/>
			<path class="st1" d="M47.6,30.4h-1.5c-0.1-0.5-0.2-1-0.4-1.5l1.3-0.8c0.7-0.4,0.9-1.3,0.5-1.9c-0.4-0.7-1.2-0.9-1.9-0.5l-1.3,0.8
				c-0.3-0.4-0.7-0.8-1.1-1.1L44,24c0.4-0.7,0.2-1.5-0.5-1.9c-0.7-0.4-1.5-0.2-1.9,0.5l-0.8,1.4c-0.5-0.2-1-0.3-1.5-0.4v-1.6
				c0-0.8-0.6-1.4-1.4-1.4s-1.4,0.6-1.4,1.4v1.6c-0.5,0.1-1,0.2-1.5,0.4l-0.8-1.4c-0.4-0.7-1.2-0.9-1.9-0.5
				c-0.7,0.4-0.9,1.2-0.5,1.9l0.8,1.4c-0.4,0.3-0.8,0.7-1.1,1.1l-1.3-0.8c-0.7-0.4-1.5-0.2-1.9,0.5c-0.4,0.7-0.2,1.5,0.5,1.9
				l1.3,0.8c-0.2,0.5-0.3,1-0.4,1.5h-1.5c-0.8,0-1.4,0.6-1.4,1.4c0,0.8,0.6,1.4,1.4,1.4h1.5c0.1,0.5,0.2,1,0.4,1.5l-1.3,0.8
				c-0.7,0.4-0.9,1.3-0.5,1.9c0.4,0.7,1.2,0.9,1.9,0.5l1.3-0.8c0.3,0.4,0.7,0.8,1.1,1.1l-0.8,1.4c-0.4,0.7-0.2,1.5,0.5,1.9
				c0.7,0.4,1.5,0.2,1.9-0.5l0.8-1.4c0.5,0.2,1,0.3,1.5,0.4v1.6c0,0.8,0.6,1.4,1.4,1.4s1.4-0.6,1.4-1.4V40c0.5-0.1,1-0.2,1.5-0.4
				l0.8,1.4c0.4,0.7,1.2,0.9,1.9,0.5c0.7-0.4,0.9-1.3,0.5-1.9l-0.8-1.4c0.4-0.3,0.8-0.7,1.1-1.1l1.3,0.8c0.7,0.4,1.5,0.2,1.9-0.5
				c0.4-0.7,0.2-1.5-0.5-1.9l-1.3-0.8c0.2-0.5,0.3-1,0.4-1.5h1.5c0.8,0,1.4-0.6,1.4-1.4C49,31,48.4,30.4,47.6,30.4 M43.4,31.8
				L43.4,31.8c0,3.1-2.5,5.6-5.5,5.6c-3,0-5.5-2.5-5.5-5.6c0-3.1,2.5-5.6,5.5-5.6C41,26.2,43.4,28.7,43.4,31.8"/>
		</g>
	</g>
</g>
</svg>
