<?xml version="1.0" encoding="utf-8"?>
<!-- Generator: Adobe Illustrator 20.1.0, SVG Export Plug-In . SVG Version: 6.00 Build 0)  -->
<svg version="1.1" id="Layer_1" xmlns="http://www.w3.org/2000/svg" xmlns:xlink="http://www.w3.org/1999/xlink" x="0px" y="0px"
	 viewBox="0 0 59 55" style="enable-background:new 0 0 59 55;" xml:space="preserve">
<style type="text/css">
	.st0{clip-path:url(#SVGID_2_);}
	.st1{clip-path:url(#SVGID_4_);}
	.st2{clip-path:url(#SVGID_6_);}
</style>
<g id="retro">
	<g>
		<defs>
			<rect id="SVGID_1_" width="53.6" height="55.5"/>
		</defs>
		<clipPath id="SVGID_2_">
			<use xlink:href="#SVGID_1_"  style="overflow:visible;"/>
		</clipPath>
		<g class="st0">
			<defs>
				<rect id="SVGID_3_" width="53.6" height="55.5"/>
			</defs>
			<clipPath id="SVGID_4_">
				<use xlink:href="#SVGID_3_"  style="overflow:visible;"/>
			</clipPath>
			<path class="st1" d="M26.5,27.6c-2.4,0-4.3-1.4-4.3-3.2c0-1.7,1.9-3.2,4.3-3.2s4.3,1.4,4.3,3.2C30.8,26.2,28.9,27.6,26.5,27.6
				 M26.5,22.7c-1.3,0-2.3,0.8-2.3,1.7c0,0.9,1,1.7,2.3,1.7c1.3,0,2.3-0.8,2.3-1.7C28.8,23.5,27.8,22.7,26.5,22.7"/>
			<path class="st1" d="M17.3,18.4c-0.3,0-0.5-0.1-0.7-0.2c-0.4-0.3-0.4-0.7,0-1c5.4-4,14.3-4,19.7,0c0.4,0.3,0.4,0.7,0,1
				c-0.4,0.3-1,0.3-1.4,0c-4.7-3.4-12.3-3.4-17,0C17.8,18.3,17.6,18.4,17.3,18.4"/>
		</g>
		<g class="st0">
			<defs>
				<rect id="SVGID_5_" width="53.6" height="55.5"/>
			</defs>
			<clipPath id="SVGID_6_">
				<use xlink:href="#SVGID_5_"  style="overflow:visible;"/>
			</clipPath>
			<path class="st2" d="M42.2,13.6c-0.3,0-0.5-0.1-0.7-0.2c-8.3-6.1-21.7-6.1-30,0c-0.4,0.3-1,0.3-1.4,0c-0.4-0.3-0.4-0.7,0-1
				c9-6.7,23.7-6.7,32.8,0c0.4,0.3,0.4,0.7,0,1C42.7,13.5,42.5,13.6,42.2,13.6"/>
			<path class="st2" d="M4.3,8.8C4,8.8,3.8,8.7,3.6,8.6c-0.4-0.3-0.4-0.7,0-1c12.6-9.3,33.2-9.3,45.8,0c0.4,0.3,0.4,0.7,0,1
				c-0.4,0.3-1,0.3-1.4,0C36.2-0.1,16.9-0.1,5,8.6C4.8,8.7,4.5,8.8,4.3,8.8"/>
			<path class="st2" d="M26.5,47.7c-0.5,0-1-0.3-1-0.7V26.9c0-0.4,0.4-0.7,1-0.7c0.5,0,1,0.3,1,0.7V47
				C27.5,47.4,27.1,47.7,26.5,47.7"/>
			<path class="st2" d="M52,53.8H1c-0.3,0-0.6-0.1-0.8-0.3C0,53.3,0,53,0.1,52.8L6,40.6c0.1-0.3,0.5-0.5,0.9-0.5h13.7
				c0.5,0,1,0.3,1,0.7c0,0.4-0.4,0.7-1,0.7h-13L2.4,52.3h48.3l-5.2-10.8h-13c-0.5,0-1-0.3-1-0.7c0-0.4,0.4-0.7,1-0.7h13.7
				c0.4,0,0.8,0.2,0.9,0.5L53,52.8c0.1,0.2,0.1,0.5-0.1,0.7C52.7,53.7,52.4,53.8,52,53.8"/>
		</g>
	</g>
</g>
</svg>
