<?xml version="1.0" encoding="utf-8"?>
<!-- Generator: Adobe Illustrator 20.1.0, SVG Export Plug-In . SVG Version: 6.00 Build 0)  -->
<svg version="1.1" id="Layer_1" xmlns="http://www.w3.org/2000/svg" xmlns:xlink="http://www.w3.org/1999/xlink" x="0px" y="0px"
	 viewBox="0 0 62 65" style="enable-background:new 0 0 62 65;" xml:space="preserve">
<style type="text/css">
	.st0{clip-path:url(#SVGID_2_);fill:#1D1D1B;}
</style>
<g id="room">
	<g>
		<defs>
			<rect id="SVGID_1_" width="62" height="65"/>
		</defs>
		<clipPath id="SVGID_2_">
			<use xlink:href="#SVGID_1_"  style="overflow:visible;"/>
		</clipPath>
		<polygon class="st0" points="25.2,34.5 23.3,34.5 23.3,37.6 20.3,37.6 20.3,29.4 23.3,29.4 23.3,30.5 25.2,30.5 25.2,27.4 
			18.4,27.4 18.4,39.6 25.2,39.6 		"/>
		<rect x="21.3" y="31.5" class="st0" width="6.8" height="2"/>
		<path class="st0" d="M12.6,7.1H2.9v16.2h9.7V7.1z M10.7,21.3H4.8V9.1h5.8L10.7,21.3L10.7,21.3z"/>
		<rect x="5.8" y="18.3" class="st0" width="3.9" height="2"/>
		<rect x="6.8" y="11.2" class="st0" width="1.9" height="5.1"/>
		<rect x="3.9" y="24.4" class="st0" width="1.9" height="2"/>
		<rect x="6.8" y="24.4" class="st0" width="1.9" height="2"/>
		<rect x="9.7" y="24.4" class="st0" width="1.9" height="2"/>
		<path class="st0" d="M16.5,2h29.1l0,61H16.5V2z M14.5,0v57.9H0v2h14.5V63H0v2h62v-2H47.5v-3.1H62v-2H47.5V0H14.5z"/>
	</g>
</g>
</svg>
