<?xml version="1.0" encoding="utf-8"?>
<!-- Generator: Adobe Illustrator 20.1.0, SVG Export Plug-In . SVG Version: 6.00 Build 0)  -->
<svg version="1.1" id="Layer_1" xmlns="http://www.w3.org/2000/svg" xmlns:xlink="http://www.w3.org/1999/xlink" x="0px" y="0px"
	 viewBox="0 0 70 57" style="enable-background:new 0 0 70 57;" xml:space="preserve">
<style type="text/css">
	.st0{clip-path:url(#SVGID_2_);}
	.st1{clip-path:url(#SVGID_4_);}
</style>
<g id="security">
	<g>
		<defs>
			<rect id="SVGID_1_" width="70" height="57"/>
		</defs>
		<clipPath id="SVGID_2_">
			<use xlink:href="#SVGID_1_"  style="overflow:visible;"/>
		</clipPath>
		<g class="st0">
			<defs>
				<rect id="SVGID_3_" width="70" height="57"/>
			</defs>
			<clipPath id="SVGID_4_">
				<use xlink:href="#SVGID_3_"  style="overflow:visible;"/>
			</clipPath>
			<path class="st1" d="M54.9,27.4c-0.8,0.6-0.8,1.7,0,2.3c0.8,0.6,2,0.6,2.8,0c1.2-1,3.3-1,4.5,0c0.4,0.3,0.9,0.5,1.4,0.5
				c0.5,0,1-0.2,1.4-0.5c0.8-0.6,0.8-1.7,0-2.3C62.3,25.1,57.7,25.1,54.9,27.4"/>
			<path class="st1" d="M53.7,26c1.7-1.4,3.9-2.1,6.3-2.1c2.4,0,4.6,0.8,6.3,2.1c0.4,0.3,0.9,0.5,1.4,0.5c0.5,0,1-0.2,1.4-0.5
				c0.8-0.6,0.8-1.7,0-2.3c-2.4-2-5.7-3.1-9.1-3.1c-3.4,0-6.7,1.1-9.1,3.1c-0.8,0.6-0.8,1.7,0,2.3C51.7,26.6,52.9,26.6,53.7,26"/>
			<path class="st1" d="M44.6,0H2.3C1,0,0,0.8,0,1.9v53.2c0,1,1,1.9,2.3,1.9h42.3c1.3,0,2.3-0.8,2.3-1.9V1.9C46.9,0.8,45.9,0,44.6,0
				 M42.3,3.8v22.8h-2V7.4c0-0.9-0.9-1.6-2-1.6H8.7c-1.1,0-2,0.7-2,1.6v19.2h-2V3.8H42.3z M36.3,26.6H10.6V9h25.6V26.6z M10.6,30.4
				h25.6V48H10.6V30.4z M4.7,53.2V30.4h2v19.2c0,0.9,0.9,1.6,2,1.6h29.6c1.1,0,2-0.7,2-1.6V30.4h2v22.8H4.7z"/>
			<path class="st1" d="M15.8,17.5c0.5,0,1-0.1,1.3-0.4l3.8-3.1c0.7-0.6,0.7-1.6,0-2.1c-0.7-0.6-1.9-0.6-2.6,0l-3.8,3.1
				c-0.7,0.6-0.7,1.6,0,2.1C14.8,17.4,15.3,17.5,15.8,17.5"/>
			<path class="st1" d="M14.5,23.3c0.4,0.3,0.8,0.4,1.3,0.4c0.5,0,1-0.2,1.3-0.5l11.3-9.4c0.7-0.6,0.7-1.6,0-2.1
				c-0.7-0.6-1.9-0.6-2.6,0l-11.3,9.4C13.7,21.8,13.7,22.7,14.5,23.3"/>
			<path class="st1" d="M67.7,32.9H52.3c-1.3,0-2.3,0.8-2.3,1.9v20.3c0,1,1,1.9,2.3,1.9h15.4c1.3,0,2.3-0.8,2.3-1.9V34.8
				C70,33.7,69,32.9,67.7,32.9 M65.3,53.2H54.6V36.7h10.7V53.2z"/>
			<path class="st1" d="M59.5,50.3c0.3,0.4,0.7,0.4,0.9,0l1.9-2.7c0.3-0.4,0-0.7-0.5-0.7h-3.7c-0.5,0-0.7,0.3-0.5,0.7L59.5,50.3z"/>
			<path class="st1" d="M58.1,42.9h3.7c0.5,0,0.7-0.3,0.5-0.7l-1.9-2.7c-0.3-0.4-0.7-0.4-0.9,0l-1.9,2.7
				C57.4,42.6,57.6,42.9,58.1,42.9"/>
		</g>
	</g>
</g>
</svg>
