<?xml version="1.0" encoding="utf-8"?>
<!-- Generator: Adobe Illustrator 20.1.0, SVG Export Plug-In . SVG Version: 6.00 Build 0)  -->
<svg version="1.1" id="Layer_1" xmlns="http://www.w3.org/2000/svg" xmlns:xlink="http://www.w3.org/1999/xlink" x="0px" y="0px"
	 viewBox="0 0 62 55" style="enable-background:new 0 0 62 55;" xml:space="preserve">
<style type="text/css">
	.st0{clip-path:url(#SVGID_2_);}
	.st1{clip-path:url(#SVGID_4_);}
</style>
<g id="Smart">
	<g>
		<defs>
			<rect id="SVGID_1_" y="0" width="62" height="55"/>
		</defs>
		<clipPath id="SVGID_2_">
			<use xlink:href="#SVGID_1_"  style="overflow:visible;"/>
		</clipPath>
		<g class="st0">
			<defs>
				<rect id="SVGID_3_" y="0" width="62" height="55"/>
			</defs>
			<clipPath id="SVGID_4_">
				<use xlink:href="#SVGID_3_"  style="overflow:visible;"/>
			</clipPath>
			<path class="st1" d="M34.8,49.8c-0.4-0.4-1.1-0.4-1.5,0c-0.4,0.4-0.4,0.9,0,1.3l4.1,3.7c0.2,0.2,0.5,0.3,0.7,0.3
				c0.3,0,0.5-0.1,0.7-0.3c0.4-0.4,0.4-0.9,0-1.3L34.8,49.8z"/>
			<path class="st1" d="M31,44c-0.6,0-1,0.4-1,0.9v2.4L23,53.4c-0.4,0.4-0.4,0.9,0,1.3c0.2,0.2,0.5,0.3,0.7,0.3
				c0.3,0,0.5-0.1,0.7-0.3l7.2-6.4c0.2-0.2,0.3-0.4,0.3-0.6v-2.7C32,44.4,31.6,44,31,44"/>
			<path class="st1" d="M61,1.8H32V0.9C32,0.4,31.6,0,31,0c-0.6,0-1,0.4-1,0.9v0.9H1c-0.6,0-1,0.4-1,0.9v3.7c0,0.5,0.5,0.9,1,0.9
				h53.7c0.6,0,1-0.4,1-0.9c0-0.5-0.5-0.9-1-0.9H2.1V3.7h57.9v1.8h-1c-0.6,0-1,0.4-1,0.9v31.2c0,1.5-1.4,2.7-3.1,2.7H7.2
				c-1.7,0-3.1-1.2-3.1-2.7V10.1c0-0.5-0.5-0.9-1-0.9c-0.6,0-1,0.4-1,0.9v27.5c0,2.5,2.3,4.6,5.2,4.6h47.5c2.8,0,5.2-2.1,5.2-4.6
				V7.3h1c0.6,0,1-0.4,1-0.9V2.7C62,2.2,61.5,1.8,61,1.8"/>
			<path class="st1" d="M46.5,18.3c2.9,0,3.1,2.3,3.1,2.8c0,0.5,0.5,0.9,1,0.9c0.6,0,1-0.4,1-0.9c0-1.6-1.1-4.6-5.2-4.6
				s-5.2,3-5.2,4.6v3.7c0,1.6,1.1,4.6,5.2,4.6s5.2-3,5.2-4.6c0-0.5-0.5-0.9-1-0.9h0c-0.6,0-1,0.4-1,0.9c0,0.5-0.2,2.8-3.1,2.8
				c-2.9,0-3.1-2.3-3.1-2.8v-3.7C43.4,20.6,43.6,18.3,46.5,18.3"/>
			<path class="st1" d="M20.7,26.9c0.2,0.4,0.5,0.6,1,0.6c0.1,0,0.3,0,0.4-0.1c0.5-0.2,0.8-0.7,0.6-1.2l-5.2-11
				c-0.2-0.3-0.5-0.6-1-0.6s-0.8,0.2-1,0.6l-5.2,11c-0.2,0.5,0,1,0.6,1.2c0.5,0.2,1.1,0,1.4-0.5l0.6-1.3h2.6c0.6,0,1-0.4,1-0.9
				c0-0.5-0.5-0.9-1-0.9h-1.7l2.8-5.9L20.7,26.9z"/>
			<path class="st1" d="M27.9,20.2c-0.6,0-1,0.4-1,0.9v11c0,0.5,0.5,0.9,1,0.9H32c1.8,0,5.2-0.8,5.2-3.7c0-1.2-0.5-2-1.3-2.5
				c0.9-0.7,1.3-1.7,1.3-3c0-1.4-0.5-2.4-1.4-3c-1.6-1.1-3.7-0.7-4-0.6c-0.6,0.1-0.9,0.6-0.8,1.1c0.1,0.5,0.7,0.8,1.3,0.7
				c0,0,1.4-0.3,2.2,0.3c0.4,0.3,0.6,0.8,0.6,1.6c0,0.8-0.2,1.3-0.6,1.6c-0.3,0.2-0.8,0.3-1.3,0.3c-0.4-0.1-0.9-0.1-1.2-0.1
				c-0.5,0-1,0.3-1,0.8c-0.1,0.5,0.3,0.9,0.8,1c0.1,0,0.6,0.1,1.3,0.1c0.9,0.2,2.1,0.6,2.1,1.7c0,1.8-3,1.8-3.1,1.8h-3.1V21.1
				C28.9,20.6,28.5,20.2,27.9,20.2"/>
		</g>
	</g>
</g>
</svg>
