<?xml version="1.0" encoding="iso-8859-1"?>
<!-- Generator: Adobe Illustrator 20.1.0, SVG Export Plug-In . SVG Version: 6.00 Build 0)  -->
<svg version="1.1" id="Layer_1" xmlns="http://www.w3.org/2000/svg" xmlns:xlink="http://www.w3.org/1999/xlink" x="0px" y="0px"
	 viewBox="-49 141 512 512" style="enable-background:new -49 141 512 512;" xml:space="preserve">
<path d="M283.522,563.429l-21.986,21.988l-6.851-18.692c-1.02-2.784-3.39-4.855-6.286-5.494c-2.896-0.639-5.916,0.244-8.014,2.341
	l-27.905,27.905c-3.394,3.393-3.394,8.893-0.001,12.286c3.393,3.391,8.892,3.393,12.286,0l18.286-18.286l6.851,18.693
	c1.02,2.784,3.39,4.855,6.286,5.494c0.622,0.137,1.249,0.204,1.871,0.204c2.278,0,4.496-0.898,6.143-2.545l31.605-31.606
	c3.392-3.393,3.392-8.893,0-12.286C292.415,560.036,286.916,560.036,283.522,563.429z"/>
<path d="M213.212,347.674c0-54.408-44.264-98.673-98.671-98.673s-98.673,44.265-98.673,98.673s44.265,98.673,98.673,98.673
	S213.212,402.082,213.212,347.674z M33.24,347.674c0-44.828,36.47-81.299,81.299-81.299c44.828,0,81.298,36.471,81.298,81.299
	s-36.47,81.299-81.298,81.299C69.71,428.972,33.24,392.503,33.24,347.674z"/>
<path d="M114.539,235.714c4.799,0,8.687-3.889,8.687-8.687v-34.205c0-4.797-3.888-8.687-8.687-8.687s-8.687,3.889-8.687,8.687
	v34.204C105.852,231.824,109.742,235.714,114.539,235.714z"/>
<path d="M188.568,577.718h-19.49c-25.282,0-45.852-20.569-45.852-45.852v-63.545c0-4.797-3.888-8.687-8.687-8.687
	c-4.799,0-8.687,3.889-8.687,8.687v63.545c0,34.862,28.362,63.225,63.225,63.225h19.49c4.799,0,8.687-3.889,8.687-8.687
	S193.366,577.718,188.568,577.718z"/>
<path d="M199.85,271.05c2.223,0,4.447-0.848,6.143-2.545l24.187-24.187c3.393-3.393,3.393-8.892,0-12.284
	c-3.394-3.393-8.893-3.393-12.286,0l-24.187,24.187c-3.393,3.393-3.393,8.892,0,12.284
	C195.404,270.202,197.627,271.05,199.85,271.05z"/>
<path d="M23.087,426.841l-24.188,24.187c-3.394,3.393-3.394,8.893-0.001,12.286c1.697,1.697,3.92,2.545,6.143,2.545
	c2.223,0,4.447-0.848,6.142-2.545l24.188-24.187c3.394-3.393,3.394-8.893,0.001-12.286C31.98,423.45,26.48,423.449,23.087,426.841z"
	/>
<path d="M226.499,347.674c0,4.797,3.888,8.687,8.687,8.687h34.205c4.799,0,8.687-3.889,8.687-8.687c0-4.797-3.888-8.687-8.687-8.687
	h-34.205C230.389,338.987,226.499,342.876,226.499,347.674z"/>
<path d="M2.579,347.674c0-4.797-3.888-8.687-8.687-8.687h-34.205c-4.799,0-8.687,3.889-8.687,8.687c0,4.797,3.888,8.687,8.687,8.687
	h34.205C-1.309,356.36,2.579,352.471,2.579,347.674z"/>
<path d="M23.087,268.506c1.696,1.696,3.92,2.545,6.142,2.545s4.447-0.848,6.143-2.545c3.393-3.393,3.393-8.893-0.001-12.286
	l-24.188-24.187c-3.391-3.393-8.892-3.391-12.284,0c-3.393,3.393-3.393,8.893,0.001,12.286L23.087,268.506z"/>
<path d="M193.707,426.842c-3.393,3.393-3.393,8.892,0,12.284l24.187,24.187c1.697,1.697,3.92,2.545,6.143,2.545
	c2.223,0,4.447-0.848,6.143-2.545c3.393-3.392,3.393-8.892,0-12.284l-24.187-24.187C202.601,423.45,197.102,423.449,193.707,426.842
	z"/>
<path d="M454.313,338.987h-17.756h-8.083v-48.516c0-4.797-3.888-8.687-8.687-8.687s-8.687,3.889-8.687,8.687v48.516h-43.785v-48.516
	c0-4.797-3.888-8.687-8.687-8.687s-8.687,3.889-8.687,8.687v48.516h-8.083h-17.756c-4.799,0-8.687,3.889-8.687,8.687
	c0,4.797,3.888,8.687,8.687,8.687h9.069v42.909c0,27.944,20.561,51.173,47.349,55.36v77.238c0,25.282-20.569,45.852-45.852,45.852
	h-20.437c-4.799,0-8.687,3.889-8.687,8.687s3.888,8.687,8.687,8.687h20.437c34.863,0,63.225-28.363,63.225-63.225v-77.238
	c26.787-4.187,47.349-27.416,47.349-55.36V356.36h9.069c4.799,0,8.687-3.889,8.687-8.687
	C462.999,342.876,459.111,338.987,454.313,338.987z M427.87,399.269c0,21.319-17.345,38.662-38.662,38.662
	s-38.662-17.344-38.662-38.662V356.36h77.325V399.269z"/>
<circle cx="372.707" cy="392.699" r="8.687"/>
<circle cx="405.718" cy="392.699" r="8.687"/>
</svg>
