<?xml version="1.0" encoding="utf-8"?>
<!-- Generator: Adobe Illustrator 20.1.0, SVG Export Plug-In . SVG Version: 6.00 Build 0)  -->
<svg version="1.1" id="Layer_1" xmlns="http://www.w3.org/2000/svg" xmlns:xlink="http://www.w3.org/1999/xlink" x="0px" y="0px"
	 viewBox="0 0 22 22" style="enable-background:new 0 0 22 22;" xml:space="preserve">
<style type="text/css">
	.st0{clip-path:url(#SVGID_2_);}
	.st1{clip-path:url(#SVGID_4_);}
</style>
<g id="Twiiter">
	<g>
		<defs>
			<rect id="SVGID_1_" x="1" y="2" width="20" height="18"/>
		</defs>
		<clipPath id="SVGID_2_">
			<use xlink:href="#SVGID_1_"  style="overflow:visible;"/>
		</clipPath>
		<g class="st0">
			<defs>
				<rect id="SVGID_3_" x="1" y="2" width="20" height="18"/>
			</defs>
			<clipPath id="SVGID_4_">
				<use xlink:href="#SVGID_3_"  style="overflow:visible;"/>
			</clipPath>
			<path class="st1" d="M21,4.1c-0.7,0.4-1.5,0.6-2.4,0.7c0.8-0.6,1.5-1.5,1.8-2.5c-0.8,0.5-1.7,0.9-2.6,1.1C17.1,2.6,16,2,14.8,2
				c-2.3,0-4.1,2-4.1,4.5c0,0.4,0,0.7,0.1,1c-3.4-0.2-6.4-2-8.5-4.7C2,3.5,1.8,4.3,1.8,5.1c0,1.6,0.7,3,1.8,3.8
				C3,8.9,2.4,8.7,1.8,8.3v0.1c0,2.2,1.4,4,3.3,4.5C4.8,12.9,4.4,13,4,13c-0.3,0-0.5,0-0.8-0.1c0.5,1.8,2,3.1,3.8,3.2
				C5.7,17.3,3.9,18,2,18c-0.3,0-0.7,0-1-0.1c1.8,1.3,4,2,6.3,2C14.8,20,19,13.1,19,7.1l0-0.6C19.8,5.8,20.5,5,21,4.1"/>
		</g>
	</g>
</g>
</svg>
