<?xml version="1.0" encoding="utf-8"?>
<!-- Generator: Adobe Illustrator 20.1.0, SVG Export Plug-In . SVG Version: 6.00 Build 0)  -->
<svg version="1.1" id="Layer_1" xmlns="http://www.w3.org/2000/svg" xmlns:xlink="http://www.w3.org/1999/xlink" x="0px" y="0px"
	 viewBox="0 0 82 57" style="enable-background:new 0 0 82 57;" xml:space="preserve">
<style type="text/css">
	.st0{clip-path:url(#SVGID_2_);fill:#080809;}
	.st1{clip-path:url(#SVGID_2_);}
	.st2{clip-path:url(#SVGID_4_);fill:#080809;}
</style>
<g id="voIP">
	<g>
		<defs>
			<rect id="SVGID_1_" x="0" y="0" width="82" height="57"/>
		</defs>
		<clipPath id="SVGID_2_">
			<use xlink:href="#SVGID_1_"  style="overflow:visible;"/>
		</clipPath>
		<rect x="15.5" y="33.3" class="st0" width="13.8" height="2"/>
		<g class="st1">
			<defs>
				<rect id="SVGID_3_" x="0" y="0" width="82" height="57"/>
			</defs>
			<clipPath id="SVGID_4_">
				<use xlink:href="#SVGID_3_"  style="overflow:visible;"/>
			</clipPath>
			<path class="st2" d="M64.6,0H18.7l-7.2,30.1v11.7h58.8V30.1L64.6,0z M27.6,9.2c0.1-0.4,0.2-0.8,0.5-1.3c0.3-0.4,0.7-0.9,1.1-1.2
				l0,0l1.3-0.9c1-0.6,2.6-0.6,3.5,0l4.8,3c0.9,0.6,0.9,1.6-0.1,2.2l-0.8,0.5l-1.6,1c0.1,0.1,0.2,0.2,0.3,0.3c0.8,1,2,2.3,4.2,3.6
				c2.2,1.4,4.3,2.1,5.8,2.6c0.2,0.1,0.3,0.1,0.5,0.2l2.4-1.5c1-0.6,2.6-0.6,3.5,0l4.8,3c0.9,0.6,0.9,1.6-0.1,2.2l-1.4,0.8l0,0
				c-0.6,0.3-1.2,0.5-1.9,0.7c-0.7,0.2-1.3,0.3-2,0.3c-0.3,0-7.5,0.4-16.4-5.2C29.3,15.5,26.9,12.5,27.6,9.2 M68.8,40.3H13V31h55.8
				V40.3z"/>
			<path class="st2" d="M61.5,37.9c1.5,0,2.7-1.2,2.7-2.7c0-1.5-1.2-2.7-2.7-2.7c-1.5,0-2.7,1.2-2.7,2.7
				C58.8,36.7,60,37.9,61.5,37.9 M61.5,34c0.6,0,1.2,0.5,1.2,1.2c0,0.7-0.5,1.2-1.2,1.2c-0.6,0-1.2-0.5-1.2-1.2
				C60.3,34.6,60.8,34,61.5,34"/>
			<path class="st2" d="M35.9,36c0,0.7-0.6,1.3-1.2,1.3c-0.7,0-1.2-0.6-1.2-1.3c0-0.7,0.6-1.3,1.2-1.3C35.4,34.7,35.9,35.3,35.9,36"
				/>
			<path class="st2" d="M38.4,37.3c0.7,0,1.2-0.6,1.2-1.3c0-0.7-0.6-1.3-1.2-1.3C37.7,34.7,37.7,37.3,38.4,37.3"/>
			<path class="st2" d="M43,36c0,0.7-0.6,1.3-1.2,1.3c-0.7,0-1.2-0.6-1.2-1.3c0-0.7,0.6-1.3,1.2-1.3C42.5,34.7,43,35.3,43,36"/>
			<path class="st2" d="M82,52.7H46.8c-0.3-1.6-1.7-2.7-3.3-2.7h-1.9v-7.8h-1.5V50h-1.9c-1.6,0-3,1.2-3.3,2.7H0v1.5h34.9
				c0.3,1.6,1.7,2.7,3.3,2.7h5.3c1.6,0,3-1.2,3.3-2.7H82V52.7z M43.5,55.5h-5.3c-1.1,0-1.9-0.9-1.9-2c0-1.1,0.9-2,1.9-2h5.3
				c1.1,0,1.9,0.9,1.9,2C45.4,54.6,44.6,55.5,43.5,55.5"/>
		</g>
	</g>
</g>
</svg>
