<?xml version="1.0" encoding="utf-8"?>
<!-- Generator: Adobe Illustrator 20.1.0, SVG Export Plug-In . SVG Version: 6.00 Build 0)  -->
<svg version="1.1" id="Layer_1" xmlns="http://www.w3.org/2000/svg" xmlns:xlink="http://www.w3.org/1999/xlink" x="0px" y="0px"
	 viewBox="0 0 80 80" style="enable-background:new 0 0 80 80;" xml:space="preserve">
<style type="text/css">
	.st0{clip-path:url(#SVGID_2_);}
	.st1{clip-path:url(#SVGID_4_);fill:#7CC242;}
	.st2{clip-path:url(#SVGID_4_);fill:#FFFFFF;}
</style>
<g id="web">
	<g>
		<defs>
			<rect id="SVGID_1_" width="80" height="80"/>
		</defs>
		<clipPath id="SVGID_2_">
			<use xlink:href="#SVGID_1_"  style="overflow:visible;"/>
		</clipPath>
		<g class="st0">
			<defs>
				<rect id="SVGID_3_" width="80" height="80"/>
			</defs>
			<clipPath id="SVGID_4_">
				<use xlink:href="#SVGID_3_"  style="overflow:visible;"/>
			</clipPath>
			<path class="st1" d="M40,0C17.9,0,0,17.9,0,40c0,22.1,17.9,40,40,40c8.9,0,17.1-2.9,23.7-7.8c-0.4,0-0.7-0.2-1-0.5l-6.6-7.3
				l-3.5,5.4l-2.9-14.7l15,4.7l-6.4,2.8l6.6,7.3c0.3,0.3,0.4,0.8,0.3,1.2C74.2,63.8,80,52.6,80,40C80,17.9,62.1,0,40,0"/>
			<polygon class="st2" points="14.9,42.8 15.3,44.9 15.3,44.9 15.8,42.8 18.8,33.4 20.8,33.4 23.8,42.8 24.2,45.1 24.3,45.1 
				24.7,42.8 27.1,33.4 29.6,33.4 25.3,48.1 23.3,48.1 20.4,39.1 19.8,36.4 19.7,36.4 19.1,39.1 16.3,48.1 14.2,48.1 9.9,33.4 
				12.5,33.4 			"/>
			<polygon class="st2" points="36,42.8 36.4,44.9 36.4,44.9 36.9,42.8 39.8,33.4 41.9,33.4 44.8,42.8 45.3,45.1 45.3,45.1 
				45.8,42.8 48.2,33.4 50.7,33.4 46.4,48.1 44.4,48.1 41.5,39.1 40.8,36.4 40.8,36.4 40.2,39.1 37.3,48.1 35.3,48.1 31,33.4 
				33.5,33.4 			"/>
			<polygon class="st2" points="57.1,42.8 57.4,44.9 57.5,44.9 57.9,42.8 60.9,33.4 62.9,33.4 65.9,42.8 66.4,45.1 66.4,45.1 
				66.9,42.8 69.2,33.4 71.7,33.4 67.5,48.1 65.4,48.1 62.5,39.1 61.9,36.4 61.8,36.4 61.2,39.1 58.4,48.1 56.3,48.1 52.1,33.4 
				54.6,33.4 			"/>
		</g>
	</g>
</g>
</svg>
