<?xml version="1.0" encoding="utf-8"?>
<!-- Generator: Adobe Illustrator 20.1.0, SVG Export Plug-In . SVG Version: 6.00 Build 0)  -->
<svg version="1.1" id="Layer_1" xmlns="http://www.w3.org/2000/svg" xmlns:xlink="http://www.w3.org/1999/xlink" x="0px" y="0px"
	 viewBox="0 0 70 57" style="enable-background:new 0 0 70 57;" xml:space="preserve">
<style type="text/css">
	.st0{clip-path:url(#SVGID_2_);}
	.st1{clip-path:url(#SVGID_4_);}
	.st2{clip-path:url(#SVGID_6_);}
</style>
<g id="web-app">
	<g>
		<defs>
			<rect id="SVGID_1_" x="-0.3" width="70" height="57"/>
		</defs>
		<clipPath id="SVGID_2_">
			<use xlink:href="#SVGID_1_"  style="overflow:visible;"/>
		</clipPath>
		<g class="st0">
			<defs>
				<rect id="SVGID_3_" x="-0.3" width="70" height="57"/>
			</defs>
			<clipPath id="SVGID_4_">
				<use xlink:href="#SVGID_3_"  style="overflow:visible;"/>
			</clipPath>
			<path class="st1" d="M68.3,0H1.1C0.3,0-0.3,0.6-0.3,1.4v54.1c0,0.8,0.6,1.4,1.4,1.4h67.2c0.8,0,1.4-0.6,1.4-1.4V1.4
				C69.7,0.6,69.1,0,68.3,0 M66.9,11.3H2.6V2.8h64.3V11.3z M2.6,14.1h64.3v39.9H2.6V14.1z"/>
		</g>
		<g class="st0">
			<defs>
				<rect id="SVGID_5_" x="-0.3" width="70" height="57"/>
			</defs>
			<clipPath id="SVGID_6_">
				<use xlink:href="#SVGID_5_"  style="overflow:visible;"/>
			</clipPath>
			<path class="st2" d="M22,21.3H10.6c-0.8,0-1.4,0.6-1.4,1.4v11.4c0,0.8,0.6,1.4,1.4,1.4H22c0.8,0,1.4-0.6,1.4-1.4V22.7
				C23.4,21.9,22.8,21.3,22,21.3 M20.6,32.7H12v-8.6h8.6V32.7z"/>
			<path class="st2" d="M28.9,35.5h11.4c0.8,0,1.4-0.6,1.4-1.4V22.7c0-0.8-0.6-1.4-1.4-1.4H28.9c-0.8,0-1.4,0.6-1.4,1.4v11.4
				C27.5,34.9,28.1,35.5,28.9,35.5 M30.3,24.1h8.6v8.6h-8.6V24.1z"/>
			<path class="st2" d="M47.2,35.5h11.4c0.8,0,1.4-0.6,1.4-1.4V22.7c0-0.8-0.6-1.4-1.4-1.4H47.2c-0.8,0-1.4,0.6-1.4,1.4v11.4
				C45.8,34.9,46.4,35.5,47.2,35.5 M48.6,24.1h8.6v8.6h-8.6V24.1z"/>
			<path class="st2" d="M22,39.1H10.6c-0.8,0-1.4,0.6-1.4,1.4c0,0.8,0.6,1.4,1.4,1.4H22c0.8,0,1.4-0.6,1.4-1.4
				C23.4,39.7,22.8,39.1,22,39.1"/>
			<path class="st2" d="M22,44.3H10.6c-0.8,0-1.4,0.6-1.4,1.4c0,0.8,0.6,1.4,1.4,1.4H22c0.8,0,1.4-0.6,1.4-1.4
				C23.4,44.9,22.8,44.3,22,44.3"/>
			<path class="st2" d="M40.4,39.1H29c-0.8,0-1.4,0.6-1.4,1.4c0,0.8,0.6,1.4,1.4,1.4h11.4c0.8,0,1.4-0.6,1.4-1.4
				C41.9,39.7,41.2,39.1,40.4,39.1"/>
			<path class="st2" d="M40.4,44.3H29c-0.8,0-1.4,0.6-1.4,1.4c0,0.8,0.6,1.4,1.4,1.4h11.4c0.8,0,1.4-0.6,1.4-1.4
				C41.9,44.9,41.2,44.3,40.4,44.3"/>
			<path class="st2" d="M58.8,39.1H47.4c-0.8,0-1.4,0.6-1.4,1.4c0,0.8,0.6,1.4,1.4,1.4h11.4c0.8,0,1.4-0.6,1.4-1.4
				C60.3,39.7,59.6,39.1,58.8,39.1"/>
			<path class="st2" d="M58.8,44.3H47.4c-0.8,0-1.4,0.6-1.4,1.4c0,0.8,0.6,1.4,1.4,1.4h11.4c0.8,0,1.4-0.6,1.4-1.4
				C60.3,44.9,59.6,44.3,58.8,44.3"/>
			<path class="st2" d="M10.6,8.5h0.7c0.8,0,1.4-0.6,1.4-1.4c0-0.8-0.6-1.4-1.4-1.4h-0.7C9.8,5.6,9.1,6.3,9.1,7
				C9.1,7.8,9.8,8.5,10.6,8.5"/>
			<path class="st2" d="M16.5,8.5h0.7c0.8,0,1.4-0.6,1.4-1.4c0-0.8-0.6-1.4-1.4-1.4h-0.7c-0.8,0-1.4,0.6-1.4,1.4
				C15.1,7.8,15.7,8.5,16.5,8.5"/>
			<path class="st2" d="M22.4,8.5h0.7c0.8,0,1.4-0.6,1.4-1.4c0-0.8-0.6-1.4-1.4-1.4h-0.7C21.6,5.6,21,6.3,21,7
				C21,7.8,21.6,8.5,22.4,8.5"/>
		</g>
	</g>
</g>
</svg>
