<?xml version="1.0" encoding="utf-8"?>
<!-- Generator: Adobe Illustrator 20.1.0, SVG Export Plug-In . SVG Version: 6.00 Build 0)  -->
<svg version="1.1" id="Layer_1" xmlns="http://www.w3.org/2000/svg" xmlns:xlink="http://www.w3.org/1999/xlink" x="0px" y="0px"
	 viewBox="0 0 22 22" style="enable-background:new 0 0 22 22;" xml:space="preserve">
<style type="text/css">
	.st0{clip-path:url(#SVGID_2_); fill:#a3a2a2}
	.st1{clip-path:url(#SVGID_4_); fill:#a3a2a2}
</style>
<g id="linkedIn">
	<g>
		<defs>
			<rect id="SVGID_1_" width="22" height="22"/>
		</defs>
		<clipPath id="SVGID_2_">
			<use xlink:href="#SVGID_1_"  style="overflow:visible;"/>
		</clipPath>
		<g class="st0">
			<defs>
				<rect id="SVGID_3_" width="22" height="22"/>
			</defs>
			<clipPath id="SVGID_4_">
				<use xlink:href="#SVGID_3_"  style="overflow:visible;"/>
			</clipPath>
			<path class="st1" d="M22,13.5V22h-4.7v-7.9c0-2-0.7-3.4-2.4-3.4c-1.3,0-2.1,0.9-2.4,1.8c-0.1,0.3-0.2,0.8-0.2,1.2V22H7.6
				c0,0,0.1-13.4,0-14.8h4.7v2.1c0,0,0,0,0,0.1h0V9.3c0.6-1,1.7-2.5,4.3-2.5C19.7,6.8,22,8.9,22,13.5 M2.7,0C1.1,0,0,1.1,0,2.6
				C0,4,1,5.1,2.6,5.1h0c1.6,0,2.7-1.1,2.7-2.6C5.3,1.1,4.3,0,2.7,0 M0.3,22H5V7.2H0.3V22z"/>
		</g>
	</g>
</g>
</svg>
